<?xml version="1.0" encoding="UTF-8"?>
<svg version="1.1" xmlns="http://www.w3.org/2000/svg" width="1298" height="1298">
<path d="M0 0 C78.54 0 157.08 0 238 0 C238 74.91 238 149.82 238 227 C240.31 227.33 242.62 227.66 245 228 C245.061875 228.61875 245.12375 229.2375 245.1875 229.875 C245.81491786 232.20658176 245.81491786 232.20658176 248.1875 233.1875 C317.9417676 253.33873286 393.39331963 235 466 235 C466 561.37 466 887.74 466 1224 C464 1224 464 1224 462.2734375 1222.3203125 C461.64695312 1221.59585937 461.02046875 1220.87140625 460.375 1220.125 C459.42753906 1219.04605469 459.42753906 1219.04605469 458.4609375 1217.9453125 C457 1216 457 1216 457 1214 C455.68 1213.67 454.36 1213.34 453 1213 C453 1212.01 453 1211.02 453 1210 C452.236875 1210.103125 451.47375 1210.20625 450.6875 1210.3125 C449.800625 1210.209375 448.91375 1210.10625 448 1210 C446.93360356 1208.37501495 445.95289657 1206.69403834 445 1205 C441.7202638 1201.31119385 438.52481006 1197.79555308 434.125 1195.5 C430.71069916 1193.08990529 430.72372023 1190.01335766 430 1186 C429.236875 1185.938125 428.47375 1185.87625 427.6875 1185.8125 C425 1185 425 1185 423.75 1182.875 C422.00625316 1180.01027305 420.8982302 1179.04200246 418.25 1177.125 C412.68174924 1172.99934886 407.96856354 1168.10176761 403.14160156 1163.15478516 C402.51995117 1162.51976074 401.89830078 1161.88473633 401.2578125 1161.23046875 C400.7023877 1160.65707764 400.14696289 1160.08368652 399.57470703 1159.49291992 C397.86482024 1157.78716583 397.86482024 1157.78716583 395 1156 C394.87625 1155.360625 394.7525 1154.72125 394.625 1154.0625 C393.70978462 1151.04228925 391.65332267 1150.55316449 389 1149 C388.33333333 1147.66666667 387.66666667 1146.33333333 387 1145 C386.21625 1144.54625 385.4325 1144.0925 384.625 1143.625 C381.3620476 1141.60507709 380.1122117 1139.16831755 378 1136 C377.21496094 1135.54753906 376.42992187 1135.09507813 375.62109375 1134.62890625 C371.79505923 1132.2511769 369.75063654 1128.89976075 367.16015625 1125.27734375 C364.60908486 1122.58787789 362.4878291 1122.07317818 359 1121 C358.7525 1120.113125 358.505 1119.22625 358.25 1118.3125 C356.51188885 1113.70650544 353.51044078 1112.32673609 349.41015625 1109.80859375 C346.72434372 1107.7931461 345.47184691 1105.9971272 344 1103 C344 1102.34 344 1101.68 344 1101 C343.46375 1100.7525 342.9275 1100.505 342.375 1100.25 C339.42429172 1098.69699564 336.70803256 1096.93513915 334 1095 C333.25492188 1094.47792969 332.50984375 1093.95585938 331.7421875 1093.41796875 C324.89076314 1088.31698666 320.15243305 1082.42935435 315.17285156 1075.60302734 C310.6008914 1069.35417421 306.62981538 1064.12521846 300 1060 C298.06701914 1058.09762042 296.60387421 1056.21712023 295 1054 C295 1053.01 295 1052.02 295 1051 C293.35 1051 291.7 1051 290 1051 C289.938125 1050.4225 289.87625 1049.845 289.8125 1049.25 C288.6865841 1046.13207906 286.58205789 1044.98619837 284 1043 C284 1042.34 284 1041.68 284 1041 C281.81105775 1039.86499291 279.813271 1038.94534761 277.4375 1038.25 C274.08597532 1036.53126939 273.54856212 1034.36643939 272 1031 C271.278125 1030.278125 270.55625 1029.55625 269.8125 1028.8125 C268.9153125 1027.9153125 268.9153125 1027.9153125 268 1027 C268 1026.01 268 1025.02 268 1024 C267.236875 1023.938125 266.47375 1023.87625 265.6875 1023.8125 C262.13518407 1022.73854402 261.85627437 1021.09379061 260 1018 C257.40877257 1017.11341534 257.40877257 1017.11341534 255 1017 C254.79375 1016.0925 254.5875 1015.185 254.375 1014.25 C252.65244556 1010.17850769 250.84197862 1009.07466846 247 1007 C245.67509803 1006.63459109 244.34265856 1006.29352492 243 1006 C242.87044922 1005.06027344 242.87044922 1005.06027344 242.73828125 1004.1015625 C242.3145421 1001.63687792 241.84717496 999.35471193 241 997 C238.65245602 995.66096786 238.65245602 995.66096786 236 995 C235.401875 994.236875 234.80375 993.47375 234.1875 992.6875 C231.65861457 989.58058361 229.11349068 988.15656717 225.609375 986.30859375 C225.07828125 985.87675781 224.5471875 985.44492187 224 985 C224 983.68 224 982.36 224 981 C223.443125 980.773125 222.88625 980.54625 222.3125 980.3125 C219.34144815 978.62622733 217.35477875 976.469646 215 974 C214.071875 973.13375 213.14375 972.2675 212.1875 971.375 C210 969 210 969 210 966 C209.05125 965.773125 208.1025 965.54625 207.125 965.3125 C204 964 204 964 202.875 961.4375 C202.58625 960.633125 202.2975 959.82875 202 959 C201.38125 958.855625 200.7625 958.71125 200.125 958.5625 C196.76783194 957.67383787 195.87865482 954.81798222 194 952 C192.01310269 950.64721885 190.01254782 949.31431695 188 948 C185.28195379 945.26015128 183.23635863 942.70907589 182 939 C180.7934375 938.2884375 180.7934375 938.2884375 179.5625 937.5625 C176.74019222 935.84158062 176.41738167 934.83476335 175 932 C172.94999129 931.19471111 172.94999129 931.19471111 171 931 C171 930.01 171 929.02 171 928 C170.24976563 927.92523437 169.49953125 927.85046875 168.7265625 927.7734375 C165.28091273 926.79601823 164.42202317 925.51326558 162.375 922.625 C160.03429982 919.33519011 160.03429982 919.33519011 157.2890625 916.3984375 C156 915 156 915 156 912 C154.35 912 152.7 912 151 912 C151 910.68 151 909.36 151 908 C150.360625 907.896875 149.72125 907.79375 149.0625 907.6875 C148.381875 907.460625 147.70125 907.23375 147 907 C146.67 906.01 146.34 905.02 146 904 C143.07116264 900.70505797 139.90124836 898.14181473 136.375 895.5 C133.08171036 892.98482538 130.67001136 890.89669316 129 887 C129 886.34 129 885.68 129 885 C127.35 885 125.7 885 124 885 C123.505 883.515 123.505 883.515 123 882 C122.34 881.67 121.68 881.34 121 881 C121 879.68 121 878.36 121 877 C120.4225 876.938125 119.845 876.87625 119.25 876.8125 C117 876 117 876 115.19140625 873.7265625 C112.90719607 870.88453272 110.53934379 868.8254199 107.6875 866.5625 C106.72070312 865.78519531 105.75390625 865.00789062 104.7578125 864.20703125 C103.84773437 863.47871094 102.93765625 862.75039063 102 862 C97.80409063 858.58025702 94.36595445 855.26354231 91 851 C90.113125 850.319375 89.22625 849.63875 88.3125 848.9375 C86 847 86 847 85.5 844.9375 C85.16483024 842.71290593 85.16483024 842.71290593 82.5625 841.5 C81.2940625 840.7575 81.2940625 840.7575 80 840 C79.33333333 838.66666667 78.66666667 837.33333333 78 836 C76.824375 835.319375 76.824375 835.319375 75.625 834.625 C73 833 73 833 71.125 830.0625 C68.43873683 826.19112072 66.12757273 825.21119968 62 823 C59.5625 821 59.5625 821 58 819 C58 817.68 58 816.36 58 815 C57.443125 814.773125 56.88625 814.54625 56.3125 814.3125 C53.34144815 812.62622733 51.35477875 810.469646 49 808 C48.071875 807.13375 47.14375 806.2675 46.1875 805.375 C44 803 44 803 44 800 C42.35 800 40.7 800 39 800 C38.505 798.515 38.505 798.515 38 797 C37.34 796.67 36.68 796.34 36 796 C36 794.68 36 793.36 36 792 C35.319375 791.79375 34.63875 791.5875 33.9375 791.375 C30.62562392 789.82476013 28.44511549 787.85761482 25.75 785.4296875 C23.92859575 783.81438236 23.92859575 783.81438236 21.0625 782.6875 C16.42100728 780.12994279 13.15734301 776.22314661 10 772 C10 771.34 10 770.68 10 770 C9.195625 769.690625 8.39125 769.38125 7.5625 769.0625 C5 768 5 768 4 767 C1.41162198 755.19264049 1.69953742 743.18147619 1.69702148 731.16796875 C1.68930619 728.94721268 1.68073334 726.72645946 1.67138767 724.50570965 C1.64811183 718.37464193 1.63713703 712.24360393 1.62812614 706.11250091 C1.6172832 700.06070926 1.59712457 694.00895223 1.57735752 687.95718484 C1.53643944 675.32202742 1.50501887 662.68686188 1.47872925 650.05166626 C1.452228 637.3245807 1.42160579 624.59751571 1.38577271 611.87045288 C1.3835253 611.07065012 1.38127789 610.27084735 1.37896238 609.44680814 C1.36977779 606.18105893 1.36057267 602.91530978 1.35133933 599.64956071 C1.23582728 558.75506719 1.14261748 517.86052952 1.05155515 476.96597558 C0.99940796 453.55802408 0.94475941 430.15007858 0.88995725 406.74213318 C0.68671915 319.9303203 0.48865121 233.11849614 0.30444336 146.30664062 C0.30200267 145.15695521 0.29956198 144.0072698 0.29704733 142.82274544 C0.19602483 95.2151678 0.09842768 47.60758307 0 0 Z " fill="#FCFCFC" transform="translate(807,24)"/>
<path d="M0 0 C6.25798328 0.00699275 12.51594217 0.00765012 18.77392827 0.00445155 C20.1384469 0.003762 20.1384469 0.003762 21.53053156 0.00305852 C23.38083032 0.00209895 25.23112907 0.0011263 27.08142781 0.00014075 C44.12513653 -0.00826472 61.16879554 0.00119925 78.2124961 0.01754184 C92.80349763 0.03109639 107.39442799 0.0284659 121.98542844 0.01478556 C139.1019928 -0.00125602 156.21851522 -0.00761115 173.33508604 0.00162235 C175.15473714 0.00257775 176.97438824 0.00352087 178.79403936 0.00445155 C180.13588233 0.00514579 180.13588233 0.00514579 181.50483325 0.00585405 C187.78416169 0.0084361 194.06346312 0.00409345 200.34278737 -0.00298711 C207.94768978 -0.01137904 215.55249923 -0.00916388 223.15739093 0.00685512 C227.02887516 0.01474364 230.90020402 0.01781717 234.77168714 0.00790766 C238.96114773 -0.00265583 243.15021434 0.00993975 247.33966123 0.02494792 C248.56505076 0.01825575 249.79044028 0.01156358 251.05296283 0.00466863 C252.17253629 0.01249187 253.29210975 0.02031511 254.44560968 0.02837542 C255.41105075 0.02886248 256.37649183 0.02934953 257.37118869 0.02985135 C262.46888511 0.74988682 265.61581879 3.77458691 269.03352414 7.40589884 C270.69735152 9.07539997 272.36445248 10.74164065 274.03352414 12.40589884 C297.03352414 35.40589884 297.03352414 35.40589884 299.66804563 38.04261759 C301.51509686 39.88795312 303.36679641 41.72800449 305.22493039 43.56214884 C306.34866022 44.67670001 307.47235769 45.79128379 308.59602414 46.90589884 C309.15998899 47.46148478 309.72395383 48.01707072 310.30500852 48.58949259 C313.45136338 51.71744771 316.25902704 54.93777747 319.03352414 58.40589884 C320.68885037 59.42456114 322.35612553 60.42400697 324.03352414 61.40589884 C325.72014872 63.05236569 327.38864121 64.71772951 329.03352414 66.40589884 C330.02352414 67.06589884 331.01352414 67.72589884 332.03352414 68.40589884 C333.04235849 70.06723296 334.04136044 71.73455538 335.03352414 73.40589884 C338.00483197 76.78416081 341.22185812 79.91869478 344.40852414 83.09339884 C345.25930539 83.96029337 346.11008664 84.82718791 346.98664914 85.72035197 C347.81422727 86.54857462 348.64180539 87.37679728 349.49446164 88.23011759 C350.24517942 88.98381632 350.99589719 89.73751505 351.76936399 90.51405314 C354.11785156 92.47635961 356.20593713 93.31278768 359.03352414 94.40589884 C359.72882311 96.0608253 360.39073259 97.72987938 361.03352414 99.40589884 C362.94923818 101.50592355 364.8495157 103.46045681 366.90852414 105.40589884 C369.86770308 108.24267865 372.70083514 110.98519688 375.24836789 114.20668009 C377.31671296 116.75477259 378.98834936 117.33597257 382.03352414 118.40589884 C382.36352414 119.06589884 382.69352414 119.72589884 383.03352414 120.40589884 C384.02352414 120.73589884 385.01352414 121.06589884 386.03352414 121.40589884 C386.30422727 122.12777384 386.57493039 122.84964884 386.85383664 123.59339884 C388.42206306 127.33221679 391.01514481 129.67210637 393.90852414 132.40589884 C396.86518024 135.24026016 399.69755617 137.98148701 402.24446164 141.19886759 C404.30186063 143.73692529 405.94656902 144.46266255 409.03352414 145.40589884 C409.03352414 146.39589884 409.03352414 147.38589884 409.03352414 148.40589884 C410.02352414 148.73589884 411.01352414 149.06589884 412.03352414 149.40589884 C413.47843992 150.867111 413.47843992 150.867111 415.04670774 152.78138712 C419.69791958 158.25809595 424.75430841 163.31052026 429.82258664 168.39808634 C430.32845682 168.90678389 430.83432699 169.41548144 431.35552656 169.93959406 C434.02351271 172.62244561 436.69426157 175.30250828 439.36750852 177.98011759 C442.11910548 180.73723554 444.86127177 183.50354154 447.60143529 186.27201632 C449.72225851 188.411467 451.84976381 190.54417649 453.97915326 192.67509821 C454.9935051 193.69246789 456.00536592 194.71232777 457.01462232 195.73475245 C458.42346924 197.16068928 459.84279165 198.576253 461.26252805 199.99134806 C462.06526151 200.79772715 462.86799497 201.60410624 463.69505369 202.43492106 C466.08269817 204.44734512 468.14885549 205.29874682 471.03352414 206.40589884 C472.07649289 208.74183634 472.07649289 208.74183634 473.03352414 211.40589884 C475.00476477 213.81236119 475.00476477 213.81236119 477.34602414 216.03089884 C478.48491086 217.16398478 478.48491086 217.16398478 479.64680539 218.31996134 C481.97846183 220.49270237 481.97846183 220.49270237 484.80696164 222.01136759 C485.54172727 222.47156291 486.27649289 222.93175822 487.03352414 223.40589884 C487.34602414 226.09339884 487.34602414 226.09339884 487.03352414 228.40589884 C487.73477414 228.65339884 488.43602414 228.90089884 489.15852414 229.15589884 C493.26373848 230.94077464 497.03782887 232.69602928 499.34602414 236.65980509 C501.46256108 240.104077 504.04112953 242.7057754 506.90852414 245.53089884 C507.42543821 246.05554728 507.94235227 246.58019572 508.47493039 247.12074259 C510.86969453 249.50344243 512.9704199 251.36844953 515.89680539 253.10511759 C516.60192258 253.53437541 517.30703977 253.96363322 518.03352414 254.40589884 C518.34602414 257.09339884 518.34602414 257.09339884 518.03352414 259.40589884 C518.74745328 259.63250697 519.46138242 259.85911509 520.19694578 260.09259013 C523.66396172 261.69778543 525.7178582 263.71607338 528.41877805 266.4188383 C529.18805379 267.18263804 529.18805379 267.18263804 529.97287046 267.96186808 C531.659417 269.64033543 533.33489951 271.32938124 535.01008664 273.01918009 C536.18351541 274.19312782 537.35746343 275.36655675 538.53190671 276.53948954 C540.98935095 278.99702339 543.4415549 281.45963311 545.88996946 283.92616251 C549.02314655 287.08201358 552.16726135 290.22668659 555.31516515 293.36784056 C557.73996238 295.78929034 560.15973246 298.21571284 562.57793866 300.64374331 C563.73519889 301.80484337 564.89379935 302.96460927 566.05377637 304.12299517 C567.67653141 305.74537786 569.29261326 307.37412992 570.9070593 309.0047758 C571.82685575 309.92917964 572.7466522 310.85358347 573.69432126 311.80599955 C575.87576359 314.2305564 577.42382386 316.58565717 579.03352414 319.40589884 C580.76404231 320.99664301 580.76404231 320.99664301 582.72102414 322.28089884 C585.76818382 324.46309483 588.68547037 326.71760059 591.53352414 329.15589884 C592.53899289 330.01441447 592.53899289 330.01441447 593.56477414 330.89027384 C595.03352414 332.40589884 595.03352414 332.40589884 595.03352414 334.40589884 C596.35352414 335.06589884 597.67352414 335.72589884 599.03352414 336.40589884 C599.03352414 337.72589884 599.03352414 339.04589884 599.03352414 340.40589884 C599.73477414 340.63277384 600.43602414 340.85964884 601.15852414 341.09339884 C607.1538034 343.83037415 611.0444275 348.43018464 615.23664914 353.35511759 C617.52764778 355.9698443 619.98771166 358.37805169 622.47493039 360.80433634 C624.03352414 362.40589884 624.03352414 362.40589884 626.15852414 365.21839884 C627.88455132 367.57941381 627.88455132 367.57941381 630.59602414 368.40589884 C633.79119751 369.7167392 634.2913537 371.50228144 636.03352414 374.40589884 C636.87914914 374.73589884 637.72477414 375.06589884 638.59602414 375.40589884 C639.40039914 375.73589884 640.20477414 376.06589884 641.03352414 376.40589884 C641.32176557 377.15214015 641.61000699 377.89838145 641.90698301 378.66723612 C643.26046934 381.95761092 644.97769102 383.71776852 647.49568235 386.22450236 C648.42036817 387.15218928 649.34505399 388.0798762 650.29776059 389.03567484 C651.30971231 390.03561762 652.32189974 391.03532191 653.33430539 392.03480509 C654.37380408 393.07124292 655.41271018 394.10827539 656.45105039 395.14587382 C658.62627546 397.31650338 660.80630689 399.48214052 662.99031125 401.64393595 C665.78118859 404.40656719 668.56335127 407.1777666 671.34237443 409.95231703 C674.00320675 412.60797632 676.6687014 415.25893702 679.33430539 417.90980509 C679.8383773 418.41199627 680.3424492 418.91418746 680.86179601 419.43159655 C682.29968042 420.86255584 683.741361 422.28969748 685.18318235 423.71668986 C686.00099683 424.52767634 686.81881131 425.33866282 687.66140806 426.17422465 C690.02313461 428.39612442 692.49161784 430.39530923 695.03352414 432.40589884 C696.19340502 433.64497863 697.32066968 434.91562679 698.40852414 436.21839884 C701.28394559 439.58871854 704.30878212 442.71260987 707.47493039 445.80824259 C709.03352414 447.40589884 709.03352414 447.40589884 711.15852414 450.15589884 C712.89270415 452.50540077 712.89270415 452.50540077 715.34602414 453.71839884 C718.63513695 455.78365572 720.64116808 458.31441869 723.11946164 461.27308634 C725.68782591 464.13497795 728.55467545 466.53321395 731.52961789 468.96058634 C732.02590696 469.43753947 732.52219602 469.91449259 733.03352414 470.40589884 C733.03352414 471.06589884 733.03352414 471.72589884 733.03352414 472.40589884 C418.87352414 472.40589884 104.71352414 472.40589884 -218.96647586 472.40589884 C-218.96647586 461.51589884 -218.96647586 450.62589884 -218.96647586 439.40589884 C-219.29647586 435.77589884 -219.62647586 432.14589884 -219.96647586 428.40589884 C-220.05010169 426.34073405 -220.10661277 424.27400399 -220.11796511 422.20717791 C-220.12630625 421.10444084 -220.13464739 420.00170378 -220.1432413 418.86555043 C-220.14742823 417.69015844 -220.15161517 416.51476644 -220.15592898 415.30375651 C-220.16840293 413.38853066 -220.16840293 413.38853066 -220.18112887 411.43461338 C-220.20391078 407.9199295 -220.2209346 404.40523848 -220.23696841 400.89051822 C-220.2553584 397.08793651 -220.27920983 393.2853885 -220.30241336 389.48283366 C-220.34188362 382.89964271 -220.37804772 376.31644039 -220.4120325 369.73321894 C-220.4613689 360.19226998 -220.51674106 350.6513631 -220.57371367 341.11045702 C-220.66626115 325.59844146 -220.75529075 310.08640803 -220.84147586 294.57435587 C-220.84662927 293.64703187 -220.85178269 292.71970787 -220.85709227 291.76428314 C-220.88840356 286.12689359 -220.91963632 280.48950361 -220.95085086 274.85211352 C-220.99757822 266.41512577 -221.04443519 257.97813875 -221.09147586 249.54115275 C-221.09662172 248.61799956 -221.10176758 247.69484638 -221.10706938 246.74371885 C-221.19326951 231.29937115 -221.28293985 215.85504537 -221.37499179 200.41073147 C-221.43147086 190.90626619 -221.48485039 181.40179333 -221.53410376 171.8972878 C-221.56812106 165.37066332 -221.60528679 158.84406149 -221.64482726 152.31746816 C-221.66745532 148.56400362 -221.68870184 144.81054571 -221.70597781 141.05705241 C-221.67142102 113.70742363 -221.67142102 113.70742363 -223.74683226 86.46080724 C-224.12134586 82.95698937 -224.2018815 79.45020354 -224.28288211 75.92933634 C-224.30370852 75.13680964 -224.32453494 74.34428294 -224.34599246 73.52774027 C-224.4117492 70.94555128 -224.4708617 68.3632704 -224.52897586 65.78089884 C-224.55015475 64.89548411 -224.57133364 64.01006938 -224.59315432 63.09782389 C-225.05612973 43.53388103 -225.07247864 23.97401244 -224.96647586 4.40589884 C-223.77263278 4.39709948 -223.77263278 4.39709948 -222.55467166 4.38812235 C-214.6314808 4.32747175 -206.70851564 4.25419978 -198.78554095 4.17018393 C-194.72299137 4.12745835 -190.66049998 4.08793975 -186.59782351 4.0594633 C-168.3118812 3.92870789 -150.04832561 3.54259896 -131.77975405 2.71368388 C-87.83416521 0.73319601 -43.98777954 -0.05056099 0 0 Z " fill="#FCFCFC" transform="translate(515.9664758555591,799.5941011570394)"/>
<path d="M0 0 C3 1 3 1 4.375 3.3125 C6.21423997 6.35431995 8.18050702 7.86818824 11 10 C11.639375 10.70125 12.27875 11.4025 12.9375 12.125 C14.93769255 14.20444854 14.93769255 14.20444854 17.9375 14.9375 C21.75105897 16.26057148 23.45472626 17.88910987 26 21 C26.66666667 23 27.33333333 25 28 27 C30.29151077 29.62494782 30.29151077 29.62494782 33 32 C35.81846074 34.74619252 38.4474728 37.5212949 40.9375 40.5625 C42.91999544 42.9252695 44.34845921 44.22504657 47 45.9375 C50.41048057 48.28220539 52.13703607 50.77558521 54.4921875 54.1171875 C56.57852996 56.72241306 59.22106725 58.18765255 62 60 C63.34331654 61.99330842 64.67594012 63.99384866 66 66 C67.697045 67.61137686 69.46436171 69.08429668 71.28125 70.55859375 C73 72 73 72 75.4375 74.625 C77.90600112 77.18956245 77.90600112 77.18956245 81.359375 78.38671875 C87.60285289 81.43210985 92.28452252 86.61515114 97.11987305 91.48852539 C98.80892672 93.18391332 100.52294851 94.85085119 102.24023438 96.51757812 C108.05874138 102.27223517 111.99827155 106.87776027 114 115 C117.36077509 118.0105032 121.80363128 119.47404774 126 121 C126 122.32 126 123.64 126 125 C126.61875 125.04125 127.2375 125.0825 127.875 125.125 C128.57625 125.41375 129.2775 125.7025 130 126 C130.2475 126.886875 130.495 127.77375 130.75 128.6875 C132.30738777 132.81457759 134.17398408 133.84790027 137.69921875 136.296875 C142.44969994 139.81336022 147.88876957 144.10747136 150.04296875 149.71484375 C150.35878906 150.46894531 150.67460937 151.22304688 151 152 C153.33010909 152.67784992 155.66359824 153.34416793 158 154 C159.75 156.4375 159.75 156.4375 161 159 C161.556875 159.515625 162.11375 160.03125 162.6875 160.5625 C164 162 164 162 164 166 C164.56533447 166.2379126 165.13066895 166.4758252 165.71313477 166.72094727 C168.50351035 168.28161532 170.36211894 170.17128161 172.58984375 172.46484375 C173.45673828 173.34720703 174.32363281 174.22957031 175.21679688 175.13867188 C177.02674877 177.00059655 178.83664484 178.86257548 180.64648438 180.72460938 C181.51466797 181.60826172 182.38285156 182.49191406 183.27734375 183.40234375 C184.45671509 184.61651978 184.45671509 184.61651978 185.65991211 185.85522461 C187.88309727 188.04494799 187.88309727 188.04494799 190.38999939 189.3949585 C192.99766635 190.9985649 194.93292473 192.67311018 197.10009766 194.82543945 C197.87084625 195.58665604 198.64159485 196.34787262 199.43569946 197.13215637 C200.66248917 198.36031319 200.66248917 198.36031319 201.9140625 199.61328125 C202.76551849 200.46045212 203.61697449 201.30762299 204.49423218 202.1804657 C206.2903686 203.97086751 208.08390122 205.76388475 209.875 207.55932617 C212.61330769 210.30079419 215.36466271 213.02867513 218.1171875 215.75585938 C219.86278983 217.49918866 221.60760807 219.24330348 223.3515625 220.98828125 C224.17347076 221.80097977 224.99537903 222.61367828 225.8421936 223.45100403 C226.60663788 224.22167709 227.37108215 224.99235016 228.15869141 225.78637695 C229.16532333 226.79206474 229.16532333 226.79206474 230.19229126 227.81806946 C233.90907105 232.30427631 235.37425582 236.33890828 235.38476086 242.13250542 C235.3942174 243.34827102 235.40367394 244.56403661 235.41341704 245.8166436 C235.40878705 247.15794523 235.40388054 248.49924593 235.39872742 249.84054565 C235.40416926 251.27303667 235.41092181 252.70552321 235.41886932 254.13800251 C235.43690833 258.0738877 235.43633524 262.0095843 235.43273985 265.94550109 C235.4321159 270.19694418 235.44874475 274.44832407 235.46325684 278.69973755 C235.48610034 286.08879943 235.49794035 293.47781407 235.50238609 300.86690903 C235.50889241 311.66348106 235.53193024 322.45997004 235.55872939 333.25650848 C235.60211629 350.9234352 235.63198075 368.59035843 235.65356445 386.25732422 C235.6742414 403.16033822 235.70133137 420.06332045 235.73754883 436.96630859 C235.73974725 437.99403258 235.74194567 439.02175657 235.74421071 440.08062372 C235.75308914 444.21936035 235.76201704 448.35809686 235.77100819 452.49683325 C235.95304651 536.33109585 236.06572337 620.16553128 236 704 C233.59375 704.14453125 233.59375 704.14453125 231 704 C229.94228261 702.36935236 228.94726954 700.69719127 228 699 C226.7934375 698.3503125 226.7934375 698.3503125 225.5625 697.6875 C220.91142073 694.62459414 219.18364945 689.29091303 218 684 C216.68 683.67 215.36 683.34 214 683 C214 682.01 214 681.02 214 680 C212.9275 679.773125 211.855 679.54625 210.75 679.3125 C206.54954437 677.84234053 205.36444867 676.67803126 203 673 C202.71125 672.34 202.4225 671.68 202.125 671 C200.09416987 667.38963533 196.68942924 664.69564734 192.875 663.125 C189.7089953 661.22539718 188.630391 658.260782 187 655 C187 654.34 187 653.68 187 653 C185.35 653 183.7 653 182 653 C182 651.35 182 649.7 182 648 C180.67162109 647.64035156 180.67162109 647.64035156 179.31640625 647.2734375 C175.69064881 645.88121497 173.73246416 644.29151097 170.9375 641.625 C168.42893201 639.25513641 166.01168114 637.00870294 163.2421875 634.9453125 C161 633 161 633 160.1875 629.25 C160.125625 628.1775 160.06375 627.105 160 626 C158.948125 625.773125 157.89625 625.54625 156.8125 625.3125 C152.7884714 624.15000285 150.674843 622.26925256 148 619 C147.54625 617.96875 147.0925 616.9375 146.625 615.875 C144.72902611 612.52058466 143.41304205 612.26763095 139.90234375 611.04296875 C136.60701037 609.236287 134.7925661 606.18744548 132.67578125 603.15625 C130.9729319 600.96517111 129.21135745 599.64338775 127 598 C126.67 597.154375 126.34 596.30875 126 595.4375 C124.7638161 592.42430173 123.82981473 592.37203138 121 591 C120.566875 590.195625 120.13375 589.39125 119.6875 588.5625 C117.72574943 585.58354543 116.21536148 585.27345578 112.98046875 584.06640625 C108.74307041 581.78473022 105.71792999 577.89790936 103 574 C102 570.4375 102 570.4375 102 568 C100.68 567.67 99.36 567.34 98 567 C98 566.01 98 565.02 98 564 C96.68 563.67 95.36 563.34 94 563 C94 562.34 94 561.68 94 561 C92.68 561 91.36 561 90 561 C89.95875 560.443125 89.9175 559.88625 89.875 559.3125 C87.74509746 553.68347185 81.03189012 550.71722067 76 548 C76 547.34 76 546.68 76 546 C75.34 546 74.68 546 74 546 C73.79375 545.4225 73.5875 544.845 73.375 544.25 C72.08273823 541.77750927 72.08273823 541.77750927 69.2734375 540.19921875 C65.8753991 537.91628842 63.1478996 535.44839173 60.25 532.5625 C59.76917969 532.09779297 59.28835937 531.63308594 58.79296875 531.15429688 C54.80092797 527.16781604 53.20218177 523.40981798 52 518 C51.01 518 50.02 518 49 518 C48.814375 517.401875 48.62875 516.80375 48.4375 516.1875 C46.3357073 512.9891198 43.48225004 512.44093105 40 511 C37.23222628 508.77040451 36.0959437 507.22386864 34.6875 503.9375 C32.45190722 500.04591257 30.08587561 499.64868665 26 498 C22.47087773 494.56374937 21.45344405 491.87452354 21 487 C19.68 486.67 18.36 486.34 17 486 C17 485.01 17 484.02 17 483 C15.68 482.67 14.36 482.34 13 482 C13 481.01 13 480.02 13 479 C11.68 478.67 10.36 478.34 9 478 C9 477.34 9 476.68 9 476 C8.4225 475.938125 7.845 475.87625 7.25 475.8125 C3.77893818 474.55906101 2.89172931 473.21357711 1 470 C0.38806995 465.92788999 0.45394612 461.87928005 0.48101807 457.76803589 C0.47351681 456.51018158 0.46601556 455.25232727 0.458287 453.95635617 C0.43799688 450.46196296 0.4425906 446.96797511 0.45119452 443.47354984 C0.45613926 439.69720966 0.43804239 435.92097133 0.42277527 432.14466858 C0.39937869 425.56977902 0.39071942 418.9949999 0.39188385 412.42007065 C0.39357073 402.76255743 0.37300923 393.10518626 0.34752855 383.44771113 C0.3062829 367.57842909 0.28312159 351.70917273 0.27099609 335.83984375 C0.2594454 320.7698293 0.2396571 305.69986803 0.20751953 290.62988281 C0.20558375 289.71987407 0.20364798 288.80986533 0.20165354 287.87228057 C0.19381639 284.20389272 0.18591305 280.53550503 0.17792538 276.86711751 C-0.00804942 191.39550593 -0.03418086 105.92367301 0 0 Z " fill="#FCFCFC" transform="translate(23,561)"/>
<path d="M0 0 C58.26133104 -0.16011022 116.52264631 -0.28352493 174.78415314 -0.35745731 C181.6574534 -0.36618883 188.53075317 -0.37526469 195.40405273 -0.38452148 C196.08803689 -0.3854368 196.77202105 -0.38635211 197.476732 -0.38729516 C219.65567856 -0.41713666 241.83450046 -0.46972471 264.01337147 -0.53408055 C287.44640169 -0.60195221 310.87932781 -0.64396478 334.31246406 -0.65861946 C348.35450854 -0.66823966 362.39619521 -0.69865856 376.43812958 -0.75541527 C386.05821226 -0.79232591 395.67810909 -0.80362138 405.29825749 -0.79450964 C410.85442868 -0.79001183 416.40997327 -0.79706012 421.96603394 -0.83443832 C427.04850814 -0.86838202 432.12993158 -0.87030358 437.2124531 -0.84629226 C439.05508122 -0.84332264 440.89777362 -0.85230676 442.74027427 -0.87418228 C445.23881619 -0.90213182 447.73352669 -0.88723831 450.23200512 -0.8613348 C450.95366026 -0.8797239 451.67531541 -0.89811299 452.41883889 -0.91705933 C455.35574575 -0.84786993 457.42443303 -0.59664931 459.50790111 1.56313377 C460.84096843 3.46008343 460.84096843 3.46008343 461.95351349 5.35254693 C463.47931991 7.75457931 465.53608092 8.62478935 468 10 C470.09040904 11.74542995 472.11341147 13.55201621 474.1328125 15.37890625 C476.11086362 17.16535882 476.11086362 17.16535882 479 19 C480.00883435 20.66133411 481.0078363 22.32865654 482 24 C484.97130783 27.37826197 488.18833398 30.51279594 491.375 33.6875 C492.22578125 34.55439453 493.0765625 35.42128906 493.953125 36.31445312 C494.78070312 37.14267578 495.60828125 37.97089844 496.4609375 38.82421875 C497.58701416 39.95476685 497.58701416 39.95476685 498.73583984 41.1081543 C501.08432741 43.07046076 503.17241299 43.90688884 506 45 C506.69529896 46.65492646 507.35720844 48.32398054 508 50 C509.91571403 52.10002471 511.81599155 54.05455797 513.875 56 C516.83165609 58.83436131 519.66403203 61.57558816 522.2109375 64.79296875 C524.26833648 67.33102645 525.91304487 68.05676371 529 69 C529 70.65 529 72.3 529 74 C529.72759521 74.23936279 530.45519043 74.47872559 531.20483398 74.7253418 C534.41351483 76.18857201 536.24800682 77.89046699 538.72265625 80.39453125 C539.59083984 81.26787109 540.45902344 82.14121094 541.35351562 83.04101562 C542.24748047 83.95560547 543.14144531 84.87019531 544.0625 85.8125 C544.96033203 86.71548828 545.85816406 87.61847656 546.78320312 88.54882812 C553.42116901 95.26575866 553.42116901 95.26575866 556.14233398 98.7175293 C557.85317982 101.10161134 557.85317982 101.10161134 560.3125 102.3125 C563.66224867 104.41583056 565.70501553 107.05723358 568.21875 110.078125 C569.88537123 111.87632159 571.33036913 112.97490582 573.4375 114.1875 C574.283125 114.785625 575.12875 115.38375 576 116 C576.375 118.75 576.375 118.75 576 121 C576.721875 121.20625 577.44375 121.4125 578.1875 121.625 C581.18046296 123.08822633 582.55823867 124.7156296 584.57421875 127.31323242 C586.12669003 129.14988038 587.78814573 130.62441566 589.625 132.17578125 C594.17019982 136.09983999 598.44085959 140.25715462 602.6875 144.5 C603.42033203 145.22058594 604.15316406 145.94117188 604.90820312 146.68359375 C608.13129797 149.89796967 611.13254501 153.01649334 613.6875 156.79296875 C616.0096237 160.01334638 617.98705371 161.70884731 621.3125 163.8125 C622.90547111 164.8287458 624.47815702 165.88004177 626 167 C626 167.66 626 168.32 626 169 C626.928125 169.3403125 626.928125 169.3403125 627.875 169.6875 C630 171 630 171 630.73046875 173.30078125 C632.44131331 176.93829998 635.12859917 178.45318265 638.4375 180.5 C642.76371487 183.19377076 645.4892416 185.49984287 648 190 C649.78141911 191.89292779 651.56218856 193.70753365 653.4375 195.5 C656.19506316 198.17127207 658.79898068 200.74484621 661.17578125 203.76171875 C663.25592862 206.31401948 664.88922782 207.04948628 668 208 C668 209.65 668 211.3 668 213 C668.928125 213.2475 669.85625 213.495 670.8125 213.75 C674.22760915 215.08925849 675.24441389 215.85842485 677 219 C677.35729936 220.32711192 677.6944417 221.66002873 678 223 C666.88907737 224.08997441 655.82617098 224.20223297 644.671875 224.28125 C642.59736341 224.29909725 640.5228548 224.31729216 638.448349 224.33580017 C633.93648051 224.37507528 629.42460061 224.41129751 624.91268921 224.44528198 C618.87943755 224.4907399 612.84623999 224.54118507 606.81304073 224.5930891 C577.09154646 224.84758979 547.36993419 225.03188072 517.64770687 225.17475474 C511.24404318 225.20561157 504.84038856 225.2379842 498.43673706 225.27127075 C497.07959577 225.2783031 497.07959577 225.2783031 495.69503748 225.28547752 C492.04316886 225.30440364 488.39130028 225.323335 484.73943257 225.34243751 C473.89532814 225.39902888 463.05123647 225.44912856 452.20705646 225.48877901 C445.3128323 225.51441853 438.41866027 225.54687441 431.52448994 225.58426291 C427.5130746 225.6057412 423.50171021 225.62405719 419.49024773 225.6337719 C404.67040131 225.6713169 389.99250576 225.80981768 375.25395203 227.54133606 C368.63232212 228.30532787 362.0093884 228.3543935 355.34765625 228.4140625 C353.90417102 228.43324248 352.46069469 228.45310215 351.01722717 228.47357178 C347.16427454 228.52551477 343.31129664 228.56578728 339.45816803 228.60210419 C337.04002333 228.62521481 334.62191174 228.65058387 332.20379639 228.67657471 C322.8097067 228.7766727 313.41556421 228.85954489 304.02122879 228.93268013 C297.70036178 228.98305459 291.37974917 229.04824364 285.05908203 229.11914062 C276.99300728 229.20898854 268.92702823 229.27883573 260.8605814 229.32502556 C256.57554464 229.34979682 252.29092877 229.38237934 248.00613403 229.43487549 C243.98327223 229.48351377 239.96097832 229.50801946 235.93783379 229.51395416 C234.46038026 229.52020213 232.98293435 229.53502164 231.50566292 229.55904388 C229.48593736 229.5904996 227.4657666 229.58784002 225.44580078 229.58349609 C224.31522247 229.59158295 223.18464417 229.5996698 222.01980591 229.60800171 C218.04228699 228.80717597 216.59542489 227.03686709 214 224 C213.34257812 223.28199219 212.68515625 222.56398438 212.0078125 221.82421875 C211.38648438 221.11910156 210.76515625 220.41398438 210.125 219.6875 C209.43921875 218.91277344 208.7534375 218.13804687 208.046875 217.33984375 C206.73516965 215.84039431 205.43221822 214.33321425 204.140625 212.81640625 C201.54602695 209.77980809 199.07813899 207.06511582 196 204.5 C192.84329736 201.86941447 190.32384852 199.04092144 187.66796875 195.921875 C186.26310794 194.3031595 184.76556487 192.76556487 183.25 191.25 C181.25682785 189.25682785 179.54326109 187.35550377 178 185 C178 184.34 178 183.68 178 183 C177.2575 182.95875 176.515 182.9175 175.75 182.875 C171.91253271 181.65398768 171.08364092 179.33382547 169 176 C168.01 175.67 167.02 175.34 166 175 C166 174.01 166 173.02 166 172 C165.401875 171.73832031 164.80375 171.47664062 164.1875 171.20703125 C161.87222889 169.92949773 160.66130918 168.72350663 159 166.6875 C158.48695313 166.06875 157.97390625 165.45 157.4453125 164.8125 C156.23106911 163.28977316 155.04906817 161.74141376 153.875 160.1875 C151.98035814 157.9770845 150.56427084 157.23792385 148 156 C147.67 155.01 147.34 154.02 147 153 C146.01 152.67 145.02 152.34 144 152 C143.67 151.01 143.34 150.02 143 149 C142.278125 148.5875 141.55625 148.175 140.8125 147.75 C137.06690939 145.41941029 134.76210731 142.39691926 132 139 C128.17148004 134.34034638 124.59373419 130.55028249 119.5625 127.21484375 C117.05804679 125.26763138 115.6496095 122.67350506 114 120 C113.2575 119.278125 112.515 118.55625 111.75 117.8125 C110 116 110 116 110 113 C108.948125 112.9071875 108.948125 112.9071875 107.875 112.8125 C101.95831658 111.14039382 98.98806827 107.06672446 96 102 C95.113125 101.319375 94.22625 100.63875 93.3125 99.9375 C92.549375 99.298125 91.78625 98.65875 91 98 C91 96.68 91 95.36 91 94 C89.6696875 93.7215625 89.6696875 93.7215625 88.3125 93.4375 C84.45336722 91.762782 83.43404694 90.24056016 81.234375 86.8125 C79.88528658 84.71052018 79.88528658 84.71052018 77.1875 82.1875 C76.465625 81.465625 75.74375 80.74375 75 80 C75 79.34 75 78.68 75 78 C74.401875 77.938125 73.80375 77.87625 73.1875 77.8125 C70.13428333 76.67844809 69.63970605 74.75470617 68 72 C67.236875 71.566875 66.47375 71.13375 65.6875 70.6875 C62.37424979 68.60708708 60.72768676 66.14901282 58.484375 62.9921875 C56.90551168 60.77302246 56.90551168 60.77302246 54.25 58.25 C52 56 52 56 51.0625 53.8125 C49.44251527 51.04899664 46.96307107 50.96753341 44 50 C41 46.8 41 46.8 41 44 C40.4534375 43.8040625 39.906875 43.608125 39.34375 43.40625 C35.41218149 41.0473089 32.88945069 37.24533179 30.06640625 33.69921875 C27.57089574 30.63686098 25.59564318 28.60755538 22 27 C20.69140625 25.37890625 20.69140625 25.37890625 19.5625 23.5625 C17.4281972 20.37095742 15.37687317 18.87604065 12 17 C11.67 16.01 11.34 15.02 11 14 C10.01 13.67 9.02 13.34 8 13 C7.71125 12.2575 7.4225 11.515 7.125 10.75 C5.73051656 7.3412627 3.61627399 5.54919005 1 3 C0.67 2.01 0.34 1.02 0 0 Z " fill="#FCFCFC" transform="translate(60,540)"/>
<path d="M0 0 C0 153.45 0 306.9 0 465 C-2.31 463.02 -4.62 461.04 -7 459 C-7 458.01 -7 457.02 -7 456 C-7.8971875 455.78085937 -8.794375 455.56171875 -9.71875 455.3359375 C-13.65259059 453.7343024 -14.9938744 452.01190163 -17.5 448.625 C-21.27861362 443.76678248 -24.29419298 440.23526901 -30.25 438.25 C-32.5198541 436.62867564 -32.38186152 435.6880882 -32.875 433 C-33.23537638 430.8475776 -33.23537638 430.8475776 -34 429 C-36.97503122 427.84164327 -36.97503122 427.84164327 -40 427 C-40.72693904 425.02111039 -41.39816251 423.02045442 -42 421 C-43.85744207 420.38932856 -43.85744207 420.38932856 -46 420 C-48.31049371 417.93271615 -50.37334985 415.79036956 -52.30078125 413.359375 C-55.2206208 409.70751933 -58.06077843 407.17633991 -62 404.625 C-66.50435926 401.64238373 -69.01822064 398.60556383 -71.6484375 393.91796875 C-73.19987845 391.71635747 -74.52969024 390.99337988 -77 390 C-77 389.01 -77 388.02 -77 387 C-78.65 387 -80.3 387 -82 387 C-82 386.01 -82 385.02 -82 384 C-82.598125 383.938125 -83.19625 383.87625 -83.8125 383.8125 C-86.86571667 382.67844809 -87.36029395 380.75470617 -89 378 C-89.825 377.505 -90.65 377.01 -91.5 376.5 C-94.53309355 374.68014387 -95.19633688 373.03133126 -97 370 C-98.69294111 367.74580062 -100.49518364 365.5919992 -102.3125 363.4375 C-102.77333984 362.87353516 -103.23417969 362.30957031 -103.70898438 361.72851562 C-106.79200392 358.062338 -109.92159998 355.58355078 -114 353 C-115.99754779 351.10000687 -117.36451552 349.26081678 -119 347 C-119 346.01 -119 345.02 -119 344 C-120.423125 343.6596875 -120.423125 343.6596875 -121.875 343.3125 C-125 342 -125 342 -126.125 339.4375 C-126.41375 338.633125 -126.7025 337.82875 -127 337 C-129.02463255 336.34786708 -129.02463255 336.34786708 -131 336 C-131.495 334.515 -131.495 334.515 -132 333 C-134.31334669 330.46977705 -136.72692707 328.23373579 -139.33203125 326.00390625 C-140.15058594 325.30136719 -140.96914063 324.59882812 -141.8125 323.875 C-142.60269531 323.21242188 -143.39289063 322.54984375 -144.20703125 321.8671875 C-146 320 -146 320 -146 317 C-146.88558594 316.79246094 -147.77117187 316.58492187 -148.68359375 316.37109375 C-152.65646242 314.72860034 -154.56747605 312.40909512 -157.0625 309.0625 C-160.01499684 305.16781617 -162.68656834 302.40542488 -167 300 C-167.4125 299.236875 -167.825 298.47375 -168.25 297.6875 C-170.14919943 294.7708723 -171.56594131 293.89963227 -174.5 292.125 C-177.67737796 290.14170118 -179.46350723 288.86531433 -180.75 285.3125 C-182.24303438 281.3559589 -183.35892914 280.90722759 -187 279 C-188.70779973 277.37550757 -190.37550757 275.70779973 -192 274 C-192.680625 273.319375 -193.36125 272.63875 -194.0625 271.9375 C-195.37516533 270.62483467 -196.66647592 269.29052563 -197.9375 267.9375 C-199.91683177 265.91847446 -199.91683177 265.91847446 -202.375 264.6875 C-205.3777815 262.75714047 -207.14844357 260.57509729 -209.390625 257.8359375 C-211.52144102 255.40515223 -213.90660731 253.40561008 -216.39453125 251.3515625 C-218.37974384 249.68031298 -220.16615852 247.83384148 -222 246 C-222.66 245.67 -223.32 245.34 -224 245 C-225 243 -226 241 -227 239 C-227.68359463 238.30046109 -228.36718925 237.60092218 -229.07149887 236.88018513 C-231.80317371 232.8004731 -231.54463 229.47342874 -231.48101807 224.66703796 C-231.48443577 223.7235488 -231.48785347 222.78005963 -231.49137473 221.80797988 C-231.49796633 218.64470867 -231.47595591 215.48228491 -231.45410156 212.3190918 C-231.45297336 210.05237345 -231.4536064 207.78565365 -231.45587158 205.51893616 C-231.45702073 199.36227609 -231.43347861 193.20592681 -231.40557575 187.04933906 C-231.3805957 180.61647088 -231.37822277 174.18359584 -231.37347412 167.75068665 C-231.36244834 156.95246348 -231.33745193 146.15436796 -231.30175781 135.35620117 C-231.26503344 124.2347877 -231.23672379 113.11340523 -231.21972656 101.99194336 C-231.21867567 101.30624799 -231.21762477 100.62055263 -231.21654204 99.91407862 C-231.21132183 96.47409559 -231.20626701 93.03411235 -231.20129442 89.59412897 C-231.15983751 61.06267552 -231.08909592 32.53134223 -231 4 C-229.2052549 4.00999275 -229.2052549 4.00999275 -227.37425232 4.02018738 C-215.94949423 4.08171531 -204.52477088 4.1263097 -193.09988308 4.15543652 C-187.23000987 4.17091548 -181.36027318 4.19181697 -175.49047852 4.22631836 C-150.7828202 4.36779451 -126.43684857 4.35548119 -101.88786125 1.31976891 C-68.43278046 -2.38466619 -33.23085363 0 0 0 Z " fill="#FCFCFC" transform="translate(773,283)"/>
<path d="M0 0 C1.65 0 3.3 0 5 0 C5 66 5 132 5 200 C-19.75 200.33 -44.5 200.66 -70 201 C-81.22 201.99 -92.44 202.98 -104 204 C-112.12181128 204.27711108 -120.2004789 204.48600182 -128.3203125 204.51171875 C-130.42407197 204.52866708 -132.52782195 204.54682974 -134.63156128 204.56611633 C-140.0331931 204.61252519 -145.43478676 204.64302581 -150.83654785 204.66955566 C-156.40282796 204.69992959 -161.96897653 204.74625527 -167.53515625 204.79101562 C-178.35670042 204.87579771 -189.17827272 204.94368065 -200 205 C-200 201.33157745 -199.20970874 199.89548041 -197 197 C-194.3125 196.1875 -194.3125 196.1875 -192 196 C-191.505 194.02 -191.505 194.02 -191 192 C-190.37609375 191.91878906 -189.7521875 191.83757812 -189.109375 191.75390625 C-186.8507553 191.20570556 -186.8507553 191.20570556 -185.953125 189.15234375 C-185.72109375 188.42144531 -185.4890625 187.69054687 -185.25 186.9375 C-185.00765625 186.20402344 -184.7653125 185.47054687 -184.515625 184.71484375 C-184.34546875 184.14894531 -184.1753125 183.58304688 -184 183 C-183.34 183 -182.68 183 -182 183 C-182 182.34 -182 181.68 -182 181 C-180.35 181 -178.7 181 -177 181 C-176.938125 180.443125 -176.87625 179.88625 -176.8125 179.3125 C-175.65848693 176.02800125 -173.52599863 174.34557016 -171 172 C-170.46375 171.401875 -169.9275 170.80375 -169.375 170.1875 C-168 169 -168 169 -165 169 C-164.67 167.35 -164.34 165.7 -164 164 C-162.02 163.67 -160.04 163.34 -158 163 C-158 160.69 -158 158.38 -158 156 C-157.01 156 -156.02 156 -155 156 C-155 155.34 -155 154.68 -155 154 C-153.35 154 -151.7 154 -150 154 C-149.9071875 153.40832031 -149.814375 152.81664062 -149.71875 152.20703125 C-148.82742207 149.47007319 -147.70189219 148.51804133 -145.5 146.6875 C-144.78585937 146.08550781 -144.07171875 145.48351562 -143.3359375 144.86328125 C-140.25420658 142.40511127 -137.09046384 140.06461703 -133.8828125 137.7734375 C-131.67746995 135.69620613 -130.92584105 133.8554887 -130 131 C-129.01 131 -128.02 131 -127 131 C-127 129.68 -127 128.36 -127 127 C-125.68 127 -124.36 127 -123 127 C-122.938125 126.443125 -122.87625 125.88625 -122.8125 125.3125 C-121.65848693 122.02800125 -119.52599863 120.34557016 -117 118 C-116.46375 117.401875 -115.9275 116.80375 -115.375 116.1875 C-114 115 -114 115 -111 115 C-110.67 113.35 -110.34 111.7 -110 110 C-109.01 109.67 -108.02 109.34 -107 109 C-106.67 108.34 -106.34 107.68 -106 107 C-105.35289062 106.87496094 -104.70578125 106.74992187 -104.0390625 106.62109375 C-101.84774781 106.21287151 -101.84774781 106.21287151 -101.0234375 104.22265625 C-100.80945313 103.50980469 -100.59546875 102.79695313 -100.375 102.0625 C-99.50648174 99.24747904 -99.13620863 98.13620863 -97 96 C-95.68 96 -94.36 96 -93 96 C-92.95875 95.38125 -92.9175 94.7625 -92.875 94.125 C-92.58625 93.42375 -92.2975 92.7225 -92 92 C-91.113125 91.7525 -90.22625 91.505 -89.3125 91.25 C-84.61537759 89.47750098 -82.5588423 86.20917056 -80 82 C-79.505 80.515 -79.505 80.515 -79 79 C-77.02 78.67 -75.04 78.34 -73 78 C-73.33 76.02 -73.66 74.04 -74 72 C-73.06027344 71.76216797 -73.06027344 71.76216797 -72.1015625 71.51953125 C-69.6369999 70.81592584 -67.32786641 70.07539654 -65 69 C-63.86454438 66.70465742 -63.86454438 66.70465742 -63 64 C-61.04544931 62.12294251 -58.97945553 60.43171568 -56.88671875 58.7109375 C-54.80114656 56.99980691 -54.80114656 56.99980691 -53.375 54.125 C-52 52 -52 52 -48.8125 51.1875 C-47.884375 51.125625 -46.95625 51.06375 -46 51 C-46.33 49.02 -46.66 47.04 -47 45 C-45.906875 44.38125 -44.81375 43.7625 -43.6875 43.125 C-36.18816115 38.43791322 -29.50993576 32.61298194 -25 25 C-22.375 23.8125 -22.375 23.8125 -20 23 C-19.67 22.34 -19.34 21.68 -19 21 C-18.01 21 -17.02 21 -16 21 C-15.67 19.02 -15.34 17.04 -15 15 C-13.68 15 -12.36 15 -11 15 C-10.835 14.319375 -10.67 13.63875 -10.5 12.9375 C-8.59185581 9.20071762 -6.02198622 7.24180454 -2.77734375 4.6484375 C-0.74133393 3.02488392 -0.74133393 3.02488392 0 0 Z " fill="#FCFCFC" transform="translate(768,48)"/>
<path d="M0 0 C4.75111439 1.90044575 7.21494832 3.81505594 10.625 7.375 C11.34042969 8.09816406 11.34042969 8.09816406 12.0703125 8.8359375 C19 15.91961806 19 15.91961806 19 19 C20.65 19.33 22.3 19.66 24 20 C24.103125 20.639375 24.20625 21.27875 24.3125 21.9375 C24.539375 22.618125 24.76625 23.29875 25 24 C25.99 24.33 26.98 24.66 28 25 C28 26.32 28 27.64 28 29 C28.845625 29 29.69125 29 30.5625 29 C34.87017137 30.25314076 36.0604274 32.0058159 38.80859375 35.41796875 C42.05843934 39.24710946 45.67555591 42.6875188 49.29321289 46.16699219 C51.99265315 48.80991457 54.32002356 51.36631403 56.3984375 54.52734375 C58.7226601 57.91867394 61.41610951 59.90793748 64.74755859 62.26318359 C69.3515711 65.8132535 73.26928003 70.14992299 77.3125 74.3125 C79.07475299 76.12564838 80.84146933 77.93447273 82.61328125 79.73828125 C83.38454346 80.53274658 84.15580566 81.32721191 84.95043945 82.14575195 C86.95382972 84.20792185 86.95382972 84.20792185 90 85 C91.16796875 86.77734375 91.16796875 86.77734375 92.1875 88.9375 C92.53167969 89.64777344 92.87585937 90.35804688 93.23046875 91.08984375 C94 93 94 93 94 95 C96.31 95.33 98.62 95.66 101 96 C101.226875 96.721875 101.45375 97.44375 101.6875 98.1875 C103.27485382 101.58897247 105.2869353 103.41025643 108 106 C108.98969124 107.15775201 109.96844278 108.32492274 110.9375 109.5 C112.91270616 111.85387263 114.9067682 113.83922737 117.3125 115.75 C120 118 120 118 121 121 C122.485 121.495 122.485 121.495 124 122 C124.33 122.99 124.66 123.98 125 125 C126.65532623 126.01866229 128.32260138 127.01810813 130 128 C130.66 128.99 131.32 129.98 132 131 C132.99 131.33 133.98 131.66 135 132 C135.5878125 133.11375 135.5878125 133.11375 136.1875 134.25 C138.03282128 137.04979781 138.80974445 137.59751481 141.625 139.125 C146.47560526 141.92995406 149.44532654 145.88313071 152.82421875 150.28125 C155.05310176 153.06635337 157.45945296 155.49933596 160 158 C162.06980765 160.31621332 164.10221971 162.66112982 166.1328125 165.01171875 C168.03312323 167.18588408 168.03312323 167.18588408 171 169 C171 169.99 171 170.98 171 172 C170.37237574 172.00423194 169.74475147 172.00846388 169.09810829 172.01282406 C153.74493053 172.1166499 138.39179598 172.22535915 123.03869057 172.33933926 C115.6136988 172.394347 108.18870228 172.4477712 100.76367188 172.49731445 C94.28332574 172.54055852 87.80301035 172.58692959 81.3227123 172.63687855 C77.8993625 172.66316059 74.47601751 172.68799735 71.05263138 172.70907402 C57.88489289 172.79285222 44.75132824 172.89093658 31.6098175 173.77940369 C25.92717849 174.12667033 20.25384961 174.14640947 14.5625 174.125 C12.93344727 174.13080078 12.93344727 174.13080078 11.27148438 174.13671875 C10.23443359 174.13542969 9.19738281 174.13414062 8.12890625 174.1328125 C7.21181885 174.13168457 6.29473145 174.13055664 5.34985352 174.12939453 C3 174 3 174 0 173 C0 115.91 0 58.82 0 0 Z " fill="#FCFCFC" transform="translate(1078,53)"/>
<path d="" fill="#FDFDFD" transform="translate(0,0)"/>
<path d="" fill="#FDFDFD" transform="translate(0,0)"/>
<path d="" fill="#FDFDFD" transform="translate(0,0)"/>
</svg>
