<?xml version="1.0" encoding="UTF-8"?>
<svg version="1.1" xmlns="http://www.w3.org/2000/svg" width="240" height="239">
<path d="M0 0 C2.98852539 1.28173828 2.98852539 1.28173828 6.09765625 3.0703125 C7.22880859 3.72 8.35996094 4.3696875 9.52539062 5.0390625 C10.10651611 5.38227539 10.6876416 5.72548828 11.28637695 6.07910156 C13.05122625 7.11836127 14.82965503 8.13054261 16.61132812 9.140625 C27.56405829 15.51357695 27.56405829 15.51357695 31 21 C31.0704409 24.59248599 30.71872721 26.20141421 28.3125 28.875 C25.20456426 30.38696874 23.46198414 30.36020644 20 30 C17.0589938 28.74406201 14.36153449 27.14785892 11.625 25.5 C10.88894531 25.07074219 10.15289062 24.64148438 9.39453125 24.19921875 C7.58955456 23.14436224 5.79381282 22.07373119 4 21 C4.02094727 21.70608398 4.04189453 22.41216797 4.06347656 23.13964844 C4.14669298 26.34295376 4.19867785 29.54603163 4.25 32.75 C4.28351563 33.86117187 4.31703125 34.97234375 4.3515625 36.1171875 C4.36445312 37.18710937 4.37734375 38.25703125 4.390625 39.359375 C4.41157227 40.34389648 4.43251953 41.32841797 4.45410156 42.34277344 C3.87152557 45.75178266 2.69931617 46.90513567 0 49 C-3 49.5 -3 49.5 -6 49 C-8.69931617 46.90513567 -9.87152557 45.75178266 -10.45410156 42.34277344 C-10.4331543 41.35825195 -10.41220703 40.37373047 -10.390625 39.359375 C-10.37128906 37.75449219 -10.37128906 37.75449219 -10.3515625 36.1171875 C-10.31804687 35.00601563 -10.28453125 33.89484375 -10.25 32.75 C-10.23195313 31.62335937 -10.21390625 30.49671875 -10.1953125 29.3359375 C-10.14820222 26.55643104 -10.08243361 23.7786466 -10 21 C-10.78262207 21.43006348 -11.56524414 21.86012695 -12.37158203 22.30322266 C-14.3039785 23.36245966 -16.2403806 24.41440615 -18.1796875 25.4609375 C-20.22653846 26.57791711 -22.24711646 27.74347327 -24.25 28.9375 C-27.93706476 30.36204775 -30.22442133 30.06856 -34 29 C-36 27.3125 -36 27.3125 -37 25 C-36.92786088 21.53732224 -36.58962061 19.68236036 -34.30810547 17.04199219 C-30.27083608 13.47020023 -25.57362534 10.97480874 -20.91943359 8.28955078 C-19.12918854 7.25242651 -17.35186715 6.19525213 -15.57421875 5.13671875 C-14.43855469 4.47800781 -13.30289063 3.81929687 -12.1328125 3.140625 C-11.10043457 2.53766602 -10.06805664 1.93470703 -9.00439453 1.31347656 C-5.60961759 -0.17066938 -3.66489772 -0.4745653 0 0 Z " fill="#FFFFFF" transform="translate(123,13)"/>
<path d="M0 0 C3.28084312 4.06378804 3.4539739 7.94187841 3.43359375 12.96875 C3.4388356 13.72667847 3.44407745 14.48460693 3.44947815 15.26550293 C3.45588002 16.86237365 3.45458515 18.45929163 3.44604492 20.05615234 C3.43752546 22.49271867 3.46633272 24.92694567 3.49804688 27.36328125 C3.49965894 28.91927013 3.49908126 30.47526315 3.49609375 32.03125 C3.51294472 33.11738586 3.51294472 33.11738586 3.53013611 34.22546387 C3.48310165 37.65597489 3.11669372 39.80589899 1.33789062 42.76464844 C-1.25231667 45.24125015 -3.7953046 46.94815957 -6.90234375 48.734375 C-8.03994141 49.39050781 -9.17753906 50.04664063 -10.34960938 50.72265625 C-11.23362427 51.22176514 -11.23362427 51.22176514 -12.13549805 51.73095703 C-13.93596476 52.74913181 -15.72511659 53.78529118 -17.51367188 54.82421875 C-27.60093667 60.59000112 -27.60093667 60.59000112 -32 61 C-34.2831838 59.8584081 -36.19012683 58.80987317 -38 57 C-38.45664112 53.04244359 -38.57132714 50.81618163 -36.25 47.5 C-31.75569496 43.58222389 -26.19004584 40.87232202 -21 38 C-21.58007812 37.61328125 -22.16015625 37.2265625 -22.7578125 36.828125 C-24.37409867 35.75060089 -25.98996581 34.67244803 -27.60546875 33.59375 C-29.02145628 32.65129827 -30.43979428 31.71233582 -31.86328125 30.78125 C-34.11673282 29.30504351 -36.08806431 27.91193569 -38 26 C-38.4375 22.625 -38.4375 22.625 -38 19 C-35.9375 16.5 -35.9375 16.5 -33 15 C-27.44825194 15.26023819 -23.60492256 17.04291026 -19.0625 20.0625 C-18.47404297 20.43955078 -17.88558594 20.81660156 -17.27929688 21.20507812 C-15.84578537 22.12578877 -14.4218428 23.06136994 -13 24 C-12.98541748 23.41508789 -12.97083496 22.83017578 -12.95581055 22.22753906 C-12.8811643 19.56770603 -12.78456101 16.90910552 -12.6875 14.25 C-12.66494141 13.32960937 -12.64238281 12.40921875 -12.61914062 11.4609375 C-12.58369141 10.57148438 -12.54824219 9.68203125 -12.51171875 8.765625 C-12.48553467 7.94868164 -12.45935059 7.13173828 -12.43237305 6.29003906 C-11.90121865 3.47681024 -10.94882205 2.07728738 -9 0 C-5.40997619 -1.1966746 -3.61734062 -1.05505768 0 0 Z " fill="#FFFFFF" transform="translate(210,132)"/>
<path d="M0 0 C2.74320734 2.88082912 3.36861324 4.8321114 3.29296875 8.765625 C3.28330078 9.65507812 3.27363281 10.54453125 3.26367188 11.4609375 C3.23853516 12.38132813 3.21339844 13.30171875 3.1875 14.25 C3.17396484 15.18585938 3.16042969 16.12171875 3.14648438 17.0859375 C3.11119954 19.39121327 3.06190281 21.6953106 3 24 C4.07378906 23.33871094 5.14757812 22.67742187 6.25390625 21.99609375 C7.68951374 21.1422357 9.12574514 20.28942601 10.5625 19.4375 C11.26697266 18.99986328 11.97144531 18.56222656 12.69726562 18.11132812 C16.48253183 15.89598799 18.40733273 14.97688598 22.90625 15.15234375 C26 16 26 16 27.9375 17.125 C29.72258556 20.275151 29.54856752 22.46478709 29 26 C25.04266287 30.26975848 20.03150866 32.84226876 14.9765625 35.66796875 C14.32429688 36.10753906 13.67203125 36.54710937 13 37 C13 37.66 13 38.32 13 39 C13.98742187 39.54269531 14.97484375 40.08539063 15.9921875 40.64453125 C17.28666715 41.36681338 18.58092658 42.08949029 19.875 42.8125 C20.52597656 43.16892578 21.17695312 43.52535156 21.84765625 43.89257812 C25.06597903 45.70081103 26.9196783 46.87951745 29 50 C29.35245721 53.31309774 29.34400223 55.33010093 27.8125 58.3125 C25.50149206 60.46412808 24.12965608 60.70687659 21 61 C13.40871951 58.46558825 6.28017289 53.47772607 -0.5625 49.375 C-1.34842529 48.90803711 -2.13435059 48.44107422 -2.9440918 47.95996094 C-3.68570557 47.5065332 -4.42731934 47.05310547 -5.19140625 46.5859375 C-6.18442749 45.98338135 -6.18442749 45.98338135 -7.19750977 45.36865234 C-9.41681866 43.68350462 -10.64827318 42.46444598 -12 40 C-12.29263912 37.21422277 -12.42084822 34.65853737 -12.3984375 31.875 C-12.40130768 31.09108887 -12.40417786 30.30717773 -12.40713501 29.49951172 C-12.40917264 27.84537024 -12.40366381 26.1912045 -12.39111328 24.53710938 C-12.3750544 22.00856529 -12.39097117 19.48161951 -12.41015625 16.953125 C-12.40817376 15.34374648 -12.40432997 13.73436895 -12.3984375 12.125 C-12.40451019 11.3707373 -12.41058289 10.61647461 -12.4168396 9.83935547 C-12.37436879 6.66168839 -12.20128477 4.36802998 -10.66259766 1.5546875 C-7.2706141 -1.61714088 -4.22770204 -1.14500264 0 0 Z " fill="#FFFFFF" transform="translate(39,132)"/>
<path d="M0 0 C4.00464665 1.76027359 7.7437947 3.88321157 11.4921875 6.1340332 C13.24883864 7.18680399 15.02066818 8.20915936 16.796875 9.22851562 C27.17939282 15.33062616 27.17939282 15.33062616 30 20 C30.37886308 22.79492177 30.53931979 25.18259842 30.49609375 27.96875 C30.49754898 28.72667847 30.49900421 29.48460693 30.50050354 30.26550293 C30.49884907 31.86242531 30.48733837 33.45936438 30.46655273 35.05615234 C30.43758851 37.49255496 30.44595364 39.92678026 30.45898438 42.36328125 C30.45274636 43.91928135 30.44435491 45.47527461 30.43359375 47.03125 C30.43652939 47.75534058 30.43946503 48.47943115 30.44248962 49.22546387 C30.3608823 53.62752936 29.77482087 56.53362605 27 60 C23.33750793 61.27391029 21.71764868 61.33490272 18.1875 59.6875 C16 58 16 58 15 56 C14.91627341 54.47851674 14.89269973 52.95344222 14.90234375 51.4296875 C14.90556641 50.53378906 14.90878906 49.63789062 14.91210938 48.71484375 C14.92048828 47.77769531 14.92886719 46.84054688 14.9375 45.875 C14.94201172 44.93011719 14.94652344 43.98523438 14.95117188 43.01171875 C14.96297643 40.67441613 14.97944241 38.33723939 15 36 C13.27009975 36.93614567 11.54111304 37.87397958 9.8125 38.8125 C8.36810547 39.59560547 8.36810547 39.59560547 6.89453125 40.39453125 C5.01158997 41.43891569 3.15342251 42.52972977 1.328125 43.671875 C-1.70869152 45.40428711 -3.55652548 45.51285791 -7 45 C-9.375 43.4375 -9.375 43.4375 -11 41 C-11.625 37.5625 -11.625 37.5625 -11 34 C-6.41059124 28.91443895 -0.02265504 26.1184922 6 23 C2.85112846 19.38672654 -1.35834612 17.26867065 -5.4375 14.87304688 C-9.89813484 12.20373033 -9.89813484 12.20373033 -11 10 C-11.44621514 3.86454183 -11.44621514 3.86454183 -10 1.0625 C-6.6351918 -0.72505436 -3.64809166 -0.6950582 0 0 Z " fill="#FFFFFF" transform="translate(183,48)"/>
<path d="M0 0 C2 1.0625 2 1.0625 3 3 C3.4375 6.4375 3.4375 6.4375 3 10 C0.02565997 13.62565536 -3.76277061 15.88395179 -7.75 18.25 C-8.35199219 18.61351563 -8.95398438 18.97703125 -9.57421875 19.3515625 C-11.04638031 20.23953297 -12.5227674 21.12049158 -14 22 C-13.41992188 22.38671875 -12.83984375 22.7734375 -12.2421875 23.171875 C-10.62590133 24.24939911 -9.01003419 25.32755197 -7.39453125 26.40625 C-5.97854372 27.34870173 -4.56020572 28.28766418 -3.13671875 29.21875 C-0.88326718 30.69495649 1.08806431 32.08806431 3 34 C3.4375 37.375 3.4375 37.375 3 41 C0.9375 43.5 0.9375 43.5 -2 45 C-7.55174806 44.73976181 -11.39507744 42.95708974 -15.9375 39.9375 C-16.52595703 39.56044922 -17.11441406 39.18339844 -17.72070312 38.79492188 C-19.15421463 37.87421123 -20.5781572 36.93863006 -22 36 C-22.01458252 36.58491211 -22.02916504 37.16982422 -22.04418945 37.77246094 C-22.1188357 40.43229397 -22.21543899 43.09089448 -22.3125 45.75 C-22.34633789 47.13058594 -22.34633789 47.13058594 -22.38085938 48.5390625 C-22.41630859 49.42851563 -22.45175781 50.31796875 -22.48828125 51.234375 C-22.51446533 52.05131836 -22.54064941 52.86826172 -22.56762695 53.70996094 C-23.09816085 56.51990332 -24.05646654 57.92313479 -26 60 C-29.62680345 61.1826533 -31.30474847 61.30900068 -34.8125 59.75 C-37 58 -37 58 -38 55 C-38.13246145 52.40010145 -38.21211766 49.82776179 -38.23828125 47.2265625 C-38.246353 46.46580414 -38.25442474 45.70504578 -38.26274109 44.92123413 C-38.27656024 43.31242132 -38.28729209 41.70357946 -38.29516602 40.09472656 C-38.31238974 37.64070919 -38.35629371 35.18803596 -38.40039062 32.734375 C-38.41051741 31.16928071 -38.41903356 29.604175 -38.42578125 28.0390625 C-38.44328934 27.30869781 -38.46079742 26.57833313 -38.47883606 25.82583618 C-38.46406604 22.33894101 -38.12422495 20.20518597 -36.30566406 17.20141602 C-33.88505286 14.89025006 -31.61639396 13.34424713 -28.68359375 11.73828125 C-27.67232422 11.17689453 -26.66105469 10.61550781 -25.61914062 10.03710938 C-24.56919922 9.46798828 -23.51925781 8.89886719 -22.4375 8.3125 C-20.35245915 7.16349584 -18.26780603 6.01378771 -16.18359375 4.86328125 C-15.26118896 4.36094971 -14.33878418 3.85861816 -13.38842773 3.34106445 C-8.31021033 0.48972558 -5.84890583 -0.75548367 0 0 Z " fill="#FFFFFF" transform="translate(65,48)"/>
<path d="M0 0 C3.29446412 1.65862777 6.42069222 3.5706919 9.5625 5.5 C11.22642744 6.51705804 12.8942884 7.52771451 14.56640625 8.53125 C15.29802979 8.98048828 16.02965332 9.42972656 16.78344727 9.89257812 C19.2898502 11.14481336 21.19944796 11.78838097 24 12 C26.3872091 11.07424036 26.3872091 11.07424036 28.65234375 9.5078125 C29.51150391 8.96769531 30.37066406 8.42757812 31.25585938 7.87109375 C32.14080078 7.29488281 33.02574219 6.71867187 33.9375 6.125 C44.73952514 -0.84455829 44.73952514 -0.84455829 50 -1 C52.63550724 -0.19470612 53.66507222 0.55342962 55.3125 2.75 C56.34426159 6.1266743 56.27086865 7.65560883 55 11 C52.28617611 13.45406241 49.15170435 15.16393445 46 17 C44.71058997 17.79028356 43.42294344 18.58344892 42.13671875 19.37890625 C40.77930843 20.21201805 39.42123372 21.04404829 38.0625 21.875 C37.39976074 22.28081299 36.73702148 22.68662598 36.05419922 23.10473633 C31.23310981 26 31.23310981 26 29 26 C29.01571045 26.83249268 29.0314209 27.66498535 29.04760742 28.52270508 C29.09876642 31.61447856 29.1363648 34.70603618 29.16479492 37.7980957 C29.18728333 39.79327701 29.22540198 41.78826213 29.26367188 43.78320312 C29.27333984 45.03681641 29.28300781 46.29042969 29.29296875 47.58203125 C29.3086792 48.73936768 29.32438965 49.8967041 29.34057617 51.08911133 C29 54 29 54 27.6027832 55.8762207 C25.60836412 57.27459253 24.42152645 57.40251735 22 57.375 C20.9790625 57.38660156 20.9790625 57.38660156 19.9375 57.3984375 C17.33133038 56.86249133 16.59100374 56.13644307 15 54 C14.65942383 51.08911133 14.65942383 51.08911133 14.70703125 47.58203125 C14.71669922 46.32841797 14.72636719 45.07480469 14.73632812 43.78320312 C14.76146484 42.47287109 14.78660156 41.16253906 14.8125 39.8125 C14.82755033 38.47722837 14.84123813 37.14194063 14.85351562 35.80664062 C14.88892306 32.53735424 14.9383111 29.26887907 15 26 C14.26861816 25.72003174 13.53723633 25.44006348 12.78369141 25.15161133 C8.44349601 23.35607531 4.44985174 21.01201769 0.375 18.6875 C-0.48351562 18.21376953 -1.34203125 17.74003906 -2.2265625 17.25195312 C-10.14280887 12.7310343 -10.14280887 12.7310343 -12 8 C-11.85821655 5.02254752 -11.45514304 3.55408717 -9.5625 1.25 C-6.12197668 -1.50241866 -4.21954486 -1.10116356 0 0 Z " fill="#FFFFFF" transform="translate(98,98)"/>
<path d="M0 0 C2.23003046 1.65470668 2.92405391 2.4941827 3.34057617 5.26831055 C3.3170105 6.56442261 3.3170105 6.56442261 3.29296875 7.88671875 C3.2784668 9.2934082 3.2784668 9.2934082 3.26367188 10.72851562 C3.23853516 11.70498047 3.21339844 12.68144531 3.1875 13.6875 C3.16719727 15.16959961 3.16719727 15.16959961 3.14648438 16.68164062 C3.11112203 19.12164231 3.06177033 21.56054719 3 24 C4.72990025 23.06385433 6.45888696 22.12602042 8.1875 21.1875 C9.15042969 20.66542969 10.11335938 20.14335937 11.10546875 19.60546875 C12.98881418 18.56086015 14.84814415 17.47130285 16.67578125 16.33203125 C19.75172239 14.56918095 21.50762652 14.41793775 25 15 C27.9375 17.125 27.9375 17.125 30 20 C30.0726419 23.55945287 29.64226098 25.26161206 27.30029297 27.95410156 C23.27312026 31.53590026 18.57244208 34.02587395 13.91943359 36.71044922 C12.12918854 37.74757349 10.35186715 38.80474787 8.57421875 39.86328125 C7.43855469 40.52199219 6.30289063 41.18070313 5.1328125 41.859375 C4.10043457 42.46233398 3.06805664 43.06529297 2.00439453 43.68652344 C-1.39253968 45.1716125 -3.3328927 45.47987537 -7 45 C-10.00439453 43.68652344 -10.00439453 43.68652344 -13.1328125 41.859375 C-14.26847656 41.20066406 -15.40414062 40.54195312 -16.57421875 39.86328125 C-17.1573584 39.51604004 -17.74049805 39.16879883 -18.34130859 38.81103516 C-20.11896368 37.75359073 -21.90764778 36.7172491 -23.69921875 35.68359375 C-36.06124234 28.44076992 -36.06124234 28.44076992 -37.9375 23.5625 C-38.01929321 20.20897857 -36.98804097 18.65072129 -35 16 C-32.08159535 14.54079768 -30.26671064 14.6695741 -27 15 C-24.05846832 16.25466806 -21.36150199 17.85216064 -18.625 19.5 C-17.88894531 19.92925781 -17.15289062 20.35851562 -16.39453125 20.80078125 C-14.58955456 21.85563776 -12.79381282 22.92626881 -11 24 C-11.01571045 23.37955811 -11.0314209 22.75911621 -11.04760742 22.11987305 C-11.10996214 19.30917472 -11.14899148 16.49862188 -11.1875 13.6875 C-11.21263672 12.71103516 -11.23777344 11.73457031 -11.26367188 10.72851562 C-11.27333984 9.79072266 -11.28300781 8.85292969 -11.29296875 7.88671875 C-11.3086792 7.02264404 -11.32438965 6.15856934 -11.34057617 5.26831055 C-10.92662107 2.51128052 -10.1649876 1.69389472 -8 0 C-5.06317146 -1.46841427 -3.13175678 -0.76696084 0 0 Z " fill="#FFFFFF" transform="translate(124,182)"/>
</svg>
