<?xml version="1.0" encoding="UTF-8"?>
<svg version="1.1" xmlns="http://www.w3.org/2000/svg" width="1080" height="938">
<path d="M0 0 C11.9082129 -0.0013522 23.81642518 -0.00325512 35.72463769 -0.00665933 C36.90368313 -0.00699607 38.08272858 -0.00733282 39.29750267 -0.00767976 C41.67162312 -0.00836057 44.04574356 -0.00904167 46.41986401 -0.00972307 C67.87819502 -0.01581312 89.33652139 -0.01799524 110.79485297 -0.01354825 C112.90896835 -0.01311767 115.02308373 -0.01269117 117.1371991 -0.01226884 C118.17298261 -0.01206076 119.20876612 -0.01185268 120.275937 -0.01163829 C127.44511703 -0.01043701 134.61429401 -0.01167535 141.78347367 -0.01402742 C150.33837891 -0.01679919 158.89327502 -0.01612917 167.44817924 -0.01084474 C171.75036693 -0.00827139 176.05253933 -0.00721751 180.35472685 -0.01055998 C184.27451926 -0.01356002 188.19428179 -0.01186819 192.11407151 -0.00657498 C193.51584821 -0.00546895 194.91762751 -0.00599525 196.31940249 -0.00844795 C205.68295173 -0.02357965 215.07789451 0.101367 224.39502114 1.12211341 C224.72502114 1.45211341 225.05502114 1.78211341 225.39502114 2.12211341 C226.74249198 2.35286423 228.09879679 2.53364403 229.45752114 2.68461341 C230.75689614 2.82898841 232.05627114 2.97336341 233.39502114 3.12211341 C233.39502114 3.78211341 233.39502114 4.44211341 233.39502114 5.12211341 C234.63252114 5.24586341 235.87002114 5.36961341 237.14502114 5.49711341 C240.27124084 5.87957645 242.68381351 6.42760864 245.39502114 8.12211341 C245.39502114 8.78211341 245.39502114 9.44211341 245.39502114 10.12211341 C246.48556802 10.28066809 246.48556802 10.28066809 247.59814614 10.44242591 C250.6306734 11.17938085 252.5673433 12.25847835 255.14502114 13.99711341 C256.31291177 14.76668372 256.31291177 14.76668372 257.50439614 15.55180091 C259.39502114 17.12211341 259.39502114 17.12211341 260.39502114 20.12211341 C262.41010472 20.85535137 262.41010472 20.85535137 264.39502114 21.12211341 C264.72502114 22.44211341 265.05502114 23.76211341 265.39502114 25.12211341 C266.71502114 25.45211341 268.03502114 25.78211341 269.39502114 26.12211341 C269.72502114 27.44211341 270.05502114 28.76211341 270.39502114 30.12211341 C271.05502114 30.12211341 271.71502114 30.12211341 272.39502114 30.12211341 C273.82696709 32.15965316 275.12391441 34.17498308 276.39502114 36.30961341 C276.75080239 36.88775794 277.10658364 37.46590247 277.47314614 38.06156653 C280.39099732 42.87928723 282.39502114 46.44755761 282.39502114 52.12211341 C283.05502114 52.12211341 283.71502114 52.12211341 284.39502114 52.12211341 C285.98210905 63.62878398 286.68285479 74.85955895 286.6422593 86.46796912 C286.64385448 88.14916839 286.64632521 89.83036702 286.64958161 91.5115639 C286.65594074 96.08939422 286.64997729 100.66713467 286.64182012 105.24495901 C286.63516692 110.21742007 286.64014611 115.18987218 286.64359921 120.16233462 C286.64857034 129.94179057 286.64286258 139.72121279 286.63367109 149.50066454 C286.62327587 161.05696489 286.62416639 172.61325706 286.6253268 184.16956104 C286.6272132 207.67326841 286.61526421 231.17695575 286.59835678 254.68065619 C286.58552345 272.57283363 286.57624971 290.46500968 286.56924599 308.35719031 C286.54225924 375.57946124 286.48568881 442.80166984 286.39900368 510.02389032 C286.39511655 513.04788897 286.39127697 516.07188768 286.38745278 519.09588641 C286.33427064 561.053777 286.26109499 603.01145995 286.11711276 644.96914858 C286.08905005 653.2810535 286.06784761 661.59295798 286.04940957 669.90488929 C286.02732326 679.71432902 285.99467138 689.52365787 285.94662052 699.33300638 C285.92325506 704.11951896 285.90385818 708.90593238 285.89735574 713.69250029 C285.89138544 717.93124527 285.87175065 722.16969133 285.84073383 726.40832514 C285.83204103 727.91092192 285.82822699 729.41355731 285.8300162 730.91617817 C285.8370124 739.46344929 285.18452194 747.00853788 282.39502114 755.12211341 C281.73502114 755.12211341 281.07502114 755.12211341 280.39502114 755.12211341 C280.06502114 757.43211341 279.73502114 759.74211341 279.39502114 762.12211341 C278.73502114 762.12211341 278.07502114 762.12211341 277.39502114 762.12211341 C277.29189614 762.67898841 277.18877114 763.23586341 277.08252114 763.80961341 C276.25090759 766.60685898 274.97372964 768.66634463 273.39502114 771.12211341 C272.71439614 772.21523841 272.03377114 773.30836341 271.33252114 774.43461341 C270.69314614 775.32148841 270.05377114 776.20836341 269.39502114 777.12211341 C268.73502114 777.12211341 268.07502114 777.12211341 267.39502114 777.12211341 C267.39502114 777.78211341 267.39502114 778.44211341 267.39502114 779.12211341 C266.73502114 779.12211341 266.07502114 779.12211341 265.39502114 779.12211341 C265.06502114 780.11211341 264.73502114 781.10211341 264.39502114 782.12211341 C263.73502114 782.12211341 263.07502114 782.12211341 262.39502114 782.12211341 C262.39502114 782.78211341 262.39502114 783.44211341 262.39502114 784.12211341 C261.73502114 784.12211341 261.07502114 784.12211341 260.39502114 784.12211341 C260.39502114 784.78211341 260.39502114 785.44211341 260.39502114 786.12211341 C259.61127114 786.20461341 258.82752114 786.28711341 258.02002114 786.37211341 C257.15377114 786.61961341 256.28752114 786.86711341 255.39502114 787.12211341 C255.12045083 787.73055091 254.84588052 788.33898841 254.56298989 788.96586341 C252.95872403 791.92758499 251.02766812 792.7939291 248.08252114 794.37211341 C247.13763833 794.89289466 246.19275552 795.41367591 245.21923989 795.95023841 C242.34286228 797.14375609 240.46920823 797.36849634 237.39502114 797.12211341 C237.39502114 797.78211341 237.39502114 798.44211341 237.39502114 799.12211341 C229.86055142 801.52913247 223.09928433 802.55562366 215.20813817 802.49684352 C214.13236965 802.50090424 213.05660114 802.50496497 211.94823357 802.50914875 C208.3548362 802.51906957 204.76183179 802.50768072 201.16844338 802.49633521 C198.56174928 802.49907662 195.95505628 802.5031294 193.34836602 802.50837886 C187.68693665 802.51765352 182.02559616 802.51583376 176.36416787 802.50664634 C167.94581312 802.4930225 159.52752639 802.4966197 151.10916666 802.50360494 C136.07517279 802.51552154 121.0412209 802.51045438 106.00722935 802.49832666 C92.85634426 802.4877901 79.70547348 802.48325123 66.55458421 802.48462218 C65.24605608 802.48474823 65.24605608 802.48474823 63.91109304 802.48487682 C60.37002319 802.48522906 56.82895335 802.48561307 53.28788351 802.4860424 C20.08072576 802.49000626 -13.12640669 802.47729347 -46.3335572 802.45651583 C-75.85348082 802.43813221 -105.37338021 802.43233729 -134.89330894 802.43778723 C-136.79006293 802.43813367 -138.68681692 802.43847976 -140.58357091 802.43882553 C-141.99013587 802.43908202 -141.99013587 802.43908202 -143.42511629 802.43934369 C-148.14516092 802.4401972 -152.86520556 802.44102099 -157.5852502 802.44181269 C-158.51639291 802.44196977 -159.44753561 802.44212685 -160.40689477 802.4422887 C-185.06240236 802.44627482 -209.71790762 802.44080881 -234.3734138 802.4323014 C-237.02476782 802.43139434 -239.67612185 802.43048869 -242.32747587 802.42958617 C-244.08636787 802.42898506 -245.84525986 802.42837644 -247.60415185 802.42776026 C-259.88254432 802.42353346 -272.1609322 802.42296285 -284.43932516 802.42486576 C-300.25275713 802.42730425 -316.06616452 802.42327232 -331.87958974 802.40765575 C-340.24870234 802.39958212 -348.61777398 802.39702119 -356.98688905 802.40229811 C-363.21998972 802.40560796 -369.45303667 802.3985448 -375.68612712 802.38727304 C-378.21946288 802.38432481 -380.75280523 802.38480728 -383.28613938 802.38891611 C-386.70773464 802.39396526 -390.12908806 802.38691303 -393.55066615 802.376589 C-394.55300543 802.38098549 -395.55534471 802.38538197 -396.58805791 802.38991168 C-397.94515133 802.38201679 -397.94515133 802.38201679 -399.32966077 802.3739624 C-400.50471465 802.37342352 -400.50471465 802.37342352 -401.70350698 802.37287374 C-403.60497886 802.12211341 -403.60497886 802.12211341 -405.60497886 800.12211341 C-405.80479911 797.34875913 -405.88477086 794.67741698 -405.87060386 791.90336341 C-405.87251731 791.08968299 -405.87443076 790.27600257 -405.8764022 789.43766516 C-405.87776413 787.7161044 -405.87406713 785.99453338 -405.86572105 784.27299231 C-405.85502144 781.63262171 -405.86561586 778.99293151 -405.87841636 776.35258216 C-405.87709477 774.68200773 -405.87453238 773.01143373 -405.87060386 771.34086341 C-405.87465232 770.54813025 -405.87870078 769.7553971 -405.88287193 768.93864173 C-405.83489913 763.35203368 -405.83489913 763.35203368 -403.60497886 761.12211341 C-400.71964795 760.90954124 -397.92787096 760.82115494 -395.04028159 760.81913489 C-393.71089057 760.80647589 -393.71089057 760.80647589 -392.35464317 760.79356116 C-389.41594777 760.76770418 -386.47735287 760.75562582 -383.53857261 760.74320716 C-381.503576 760.72704263 -379.46858722 760.70986376 -377.4336074 760.69170874 C-372.06970669 760.64594314 -366.70579574 760.61117627 -361.34179527 760.57951087 C-352.75129164 760.52770341 -344.16090269 760.46267671 -335.57054168 760.39129561 C-332.56082646 760.36837662 -329.55112599 760.35216114 -326.54136497 760.33657569 C-324.70766885 760.32317468 -322.87397428 760.30956037 -321.04028159 760.29569739 C-320.19610175 760.29308402 -319.35192191 760.29047065 -318.48216087 760.28777808 C-314.73833548 760.61347237 -314.73833548 760.61347237 -311.60497886 759.12211341 C-309.73353295 758.93614954 -307.85717582 758.7987358 -305.97997886 758.68461341 C-301.25088891 758.33803707 -297.16201992 757.43664448 -292.60497886 756.12211341 C-289.91175048 755.964251 -287.3062755 756.02733107 -284.60497886 756.12211341 C-284.60497886 755.46211341 -284.60497886 754.80211341 -284.60497886 754.12211341 C-279.57848583 752.55133433 -274.84377964 751.67356612 -269.60497886 751.12211341 C-269.60497886 750.46211341 -269.60497886 749.80211341 -269.60497886 749.12211341 C-268.19100984 748.61453478 -266.77366157 748.11636416 -265.35497886 747.62211341 C-264.56607261 747.34367591 -263.77716636 747.06523841 -262.96435386 746.77836341 C-260.60497886 746.12211341 -260.60497886 746.12211341 -256.60497886 746.12211341 C-256.60497886 745.46211341 -256.60497886 744.80211341 -256.60497886 744.12211341 C-249.97997886 741.12211341 -249.97997886 741.12211341 -246.60497886 741.12211341 C-246.60497886 740.46211341 -246.60497886 739.80211341 -246.60497886 739.12211341 C-245.35762319 738.47118751 -244.10696054 737.82659671 -242.85497886 737.18461341 C-242.15888511 736.82496497 -241.46279136 736.46531653 -240.74560386 736.09476966 C-238.70273453 735.16653159 -236.7938251 734.59044762 -234.60497886 734.12211341 C-234.60497886 733.46211341 -234.60497886 732.80211341 -234.60497886 732.12211341 C-233.42935386 731.99836341 -233.42935386 731.99836341 -232.22997886 731.87211341 C-229.46031706 731.4136194 -229.46031706 731.4136194 -228.47997886 729.12211341 C-228.19122886 728.46211341 -227.90247886 727.80211341 -227.60497886 727.12211341 C-226.61497886 726.79211341 -225.62497886 726.46211341 -224.60497886 726.12211341 C-223.96560386 725.46211341 -223.32622886 724.80211341 -222.66747886 724.12211341 C-220.54823171 722.06708586 -219.46749972 721.53104496 -216.60497886 721.12211341 C-216.60497886 720.46211341 -216.60497886 719.80211341 -216.60497886 719.12211341 C-215.94497886 719.12211341 -215.28497886 719.12211341 -214.60497886 719.12211341 C-214.27497886 718.13211341 -213.94497886 717.14211341 -213.60497886 716.12211341 C-211.78466636 714.57914466 -211.78466636 714.57914466 -209.47997886 712.93461341 C-204.4828892 709.18280487 -199.44318497 704.79852562 -196.60497886 699.12211341 C-195.94497886 699.12211341 -195.28497886 699.12211341 -194.60497886 699.12211341 C-194.27497886 698.13211341 -193.94497886 697.14211341 -193.60497886 696.12211341 C-192.94497886 696.12211341 -192.28497886 696.12211341 -191.60497886 696.12211341 C-191.60497886 695.13211341 -191.60497886 694.14211341 -191.60497886 693.12211341 C-190.94497886 693.12211341 -190.28497886 693.12211341 -189.60497886 693.12211341 C-189.27497886 691.80211341 -188.94497886 690.48211341 -188.60497886 689.12211341 C-187.94497886 689.12211341 -187.28497886 689.12211341 -186.60497886 689.12211341 C-186.60497886 688.13211341 -186.60497886 687.14211341 -186.60497886 686.12211341 C-185.94497886 686.12211341 -185.28497886 686.12211341 -184.60497886 686.12211341 C-184.29560386 685.33836341 -183.98622886 684.55461341 -183.66747886 683.74711341 C-182.60497886 681.12211341 -182.60497886 681.12211341 -181.60497886 679.12211341 C-180.94497886 679.12211341 -180.28497886 679.12211341 -179.60497886 679.12211341 C-179.41935386 677.97742591 -179.41935386 677.97742591 -179.22997886 676.80961341 C-178.60497886 674.12211341 -178.60497886 674.12211341 -176.60497886 671.12211341 C-175.94497886 671.12211341 -175.28497886 671.12211341 -174.60497886 671.12211341 C-174.45029136 670.03930091 -174.45029136 670.03930091 -174.29247886 668.93461341 C-173.5296957 665.81413686 -172.25820087 663.87748342 -170.60497886 661.12211341 C-169.55893903 658.70152537 -168.59819202 656.25610723 -167.64404136 653.79789466 C-166.64450752 651.22390713 -165.59560168 648.6745294 -164.54247886 646.12211341 C-161.04260216 637.30406468 -158.98145799 628.44929409 -157.25341636 619.14945716 C-156.60497886 616.12211341 -156.60497886 616.12211341 -155.60497886 615.12211341 C-152.582846 597.18361621 -153.44582968 578.65319117 -153.47620612 560.52306479 C-153.48001267 558.03753595 -153.48206125 555.55201103 -153.48367149 553.06647986 C-153.50976688 518.41923343 -153.74303396 483.77249799 -153.99525362 449.12627685 C-154.03234397 444.01681613 -154.06738896 438.9073439 -154.101744 433.79786414 C-154.14425166 427.5019607 -154.19062084 421.20609814 -154.24165678 414.91025788 C-154.26804873 411.6505691 -154.29255184 408.39088689 -154.31408721 405.13116187 C-154.33812987 401.55314222 -154.36811903 397.97522024 -154.39965659 394.39725989 C-154.40828884 392.82794416 -154.40828884 392.82794416 -154.41709548 391.22692508 C-153.92332758 382.66416941 -153.92332758 382.66416941 -156.60497886 375.12211341 C-158.19166864 368.87452239 -158.9852037 362.52645667 -159.60497886 356.12211341 C-160.26497886 356.12211341 -160.92497886 356.12211341 -161.60497886 356.12211341 C-161.84732261 355.33707434 -162.08966636 354.55203528 -162.33935386 353.74320716 C-164.54620167 346.69285958 -164.54620167 346.69285958 -167.85497886 340.12211341 C-169.60497886 337.12211341 -169.60497886 337.12211341 -169.60497886 333.12211341 C-170.26497886 333.12211341 -170.92497886 333.12211341 -171.60497886 333.12211341 C-173.64667371 330.21662458 -174.60497886 328.72069295 -174.60497886 325.12211341 C-175.26497886 325.12211341 -175.92497886 325.12211341 -176.60497886 325.12211341 C-177.93701011 323.36430091 -177.93701011 323.36430091 -179.41747886 320.99711341 C-181.29862976 318.06214824 -183.19011606 315.31371514 -185.47997886 312.68461341 C-187.60497886 310.12211341 -187.60497886 310.12211341 -187.60497886 308.12211341 C-188.26497886 308.12211341 -188.92497886 308.12211341 -189.60497886 308.12211341 C-189.60497886 307.13211341 -189.60497886 306.14211341 -189.60497886 305.12211341 C-190.26497886 305.12211341 -190.92497886 305.12211341 -191.60497886 305.12211341 C-191.60497886 304.46211341 -191.60497886 303.80211341 -191.60497886 303.12211341 C-192.18763511 302.85398841 -192.77029136 302.58586341 -193.37060386 302.30961341 C-195.63284486 301.1073035 -197.41074204 299.78385428 -199.35497886 298.12211341 C-199.96857261 297.60648841 -200.58216636 297.09086341 -201.21435386 296.55961341 C-202.60497886 295.12211341 -202.60497886 295.12211341 -202.60497886 293.12211341 C-203.22372886 292.81273841 -203.84247886 292.50336341 -204.47997886 292.18461341 C-205.85497886 291.49711341 -207.22997886 290.80961341 -208.60497886 290.12211341 C-208.60497886 289.46211341 -208.60497886 288.80211341 -208.60497886 288.12211341 C-209.14638511 288.02801184 -209.68779136 287.93391028 -210.24560386 287.83695716 C-213.30268974 286.91072087 -215.66266891 285.3975778 -218.35497886 283.68461341 C-219.33982261 283.06715247 -220.32466636 282.44969153 -221.33935386 281.81351966 C-222.08701011 281.25535559 -222.83466636 280.69719153 -223.60497886 280.12211341 C-223.60497886 279.46211341 -223.60497886 278.80211341 -223.60497886 278.12211341 C-224.34747886 277.99836341 -225.08997886 277.87461341 -225.85497886 277.74711341 C-228.40639371 277.1672464 -230.33173616 276.38502602 -232.60497886 275.12211341 C-232.60497886 274.46211341 -232.60497886 273.80211341 -232.60497886 273.12211341 C-233.65685386 273.01898841 -234.70872886 272.91586341 -235.79247886 272.80961341 C-239.60497886 272.12211341 -239.60497886 272.12211341 -241.97997886 270.68461341 C-245.01995358 268.87510464 -247.67415648 268.35003877 -251.12841636 267.74711341 C-253.60497886 267.12211341 -253.60497886 267.12211341 -256.80810386 265.62992591 C-261.09260083 263.72955349 -265.34789515 263.37999229 -269.97997886 262.99711341 C-278.49425222 262.23284005 -278.49425222 262.23284005 -279.60497886 261.12211341 C-281.72678024 261.02205515 -283.85191425 260.99130254 -285.97607261 260.98930091 C-287.27222495 260.98801184 -288.5683773 260.98672278 -289.90380698 260.98539466 C-290.58257896 260.98748938 -291.26135093 260.98958411 -291.96069175 260.99174231 C-294.03034675 260.99708211 -296.09978386 260.99180147 -298.16943198 260.98539466 C-299.46687339 260.98668372 -300.7643148 260.98797278 -302.10107261 260.98930091 C-303.89822715 260.9909928 -303.89822715 260.9909928 -305.73168784 260.99271888 C-308.54852049 260.92449991 -308.54852049 260.92449991 -310.60497886 262.12211341 C-314.29701105 262.53027777 -317.98738155 262.88862121 -321.68896323 263.19633216 C-326.93229986 263.70724357 -330.83557688 264.90297631 -335.60497886 267.12211341 C-338.08154136 267.74711341 -338.08154136 267.74711341 -340.22997886 268.12211341 C-343.91625342 268.86310441 -346.3826804 270.17177487 -349.60497886 272.12211341 C-353.41747886 272.80961341 -353.41747886 272.80961341 -356.60497886 273.12211341 C-356.60497886 273.78211341 -356.60497886 274.44211341 -356.60497886 275.12211341 C-357.44802573 275.53203528 -358.29107261 275.94195716 -359.15966636 276.36430091 C-360.25536948 276.90312903 -361.35107261 277.44195716 -362.47997886 277.99711341 C-363.57052573 278.53078528 -364.66107261 279.06445716 -365.78466636 279.61430091 C-368.64380433 280.96747277 -368.64380433 280.96747277 -370.60497886 283.12211341 C-371.59497886 283.12211341 -372.58497886 283.12211341 -373.60497886 283.12211341 C-373.60497886 283.78211341 -373.60497886 284.44211341 -373.60497886 285.12211341 C-374.59497886 285.12211341 -375.58497886 285.12211341 -376.60497886 285.12211341 C-376.60497886 285.78211341 -376.60497886 286.44211341 -376.60497886 287.12211341 C-377.92497886 287.45211341 -379.24497886 287.78211341 -380.60497886 288.12211341 C-380.60497886 288.78211341 -380.60497886 289.44211341 -380.60497886 290.12211341 C-381.59497886 290.12211341 -382.58497886 290.12211341 -383.60497886 290.12211341 C-383.60497886 290.78211341 -383.60497886 291.44211341 -383.60497886 292.12211341 C-384.97997886 293.74711341 -384.97997886 293.74711341 -386.60497886 295.12211341 C-387.26497886 295.12211341 -387.92497886 295.12211341 -388.60497886 295.12211341 C-388.60497886 295.78211341 -388.60497886 296.44211341 -388.60497886 297.12211341 C-390.10107261 298.55961341 -390.10107261 298.55961341 -392.04247886 300.12211341 C-394.75686124 302.26736384 -394.75686124 302.26736384 -396.60497886 305.12211341 C-397.26497886 305.12211341 -397.92497886 305.12211341 -398.60497886 305.12211341 C-398.60497886 305.78211341 -398.60497886 306.44211341 -398.60497886 307.12211341 C-399.97997886 308.74711341 -399.97997886 308.74711341 -401.60497886 310.12211341 C-402.26497886 310.12211341 -402.92497886 310.12211341 -403.60497886 310.12211341 C-403.60497886 310.78211341 -403.60497886 311.44211341 -403.60497886 312.12211341 C-404.26497886 312.12211341 -404.92497886 312.12211341 -405.60497886 312.12211341 C-405.74935386 312.76148841 -405.89372886 313.40086341 -406.04247886 314.05961341 C-406.60497886 316.12211341 -406.60497886 316.12211341 -407.60497886 317.12211341 C-409.6045625 317.16292124 -411.6054314 317.16465697 -413.60497886 317.12211341 C-417.0491702 307.71209063 -417.0491702 307.71209063 -416.60497886 303.12211341 C-417.26497886 303.12211341 -417.92497886 303.12211341 -418.60497886 303.12211341 C-419.18505698 301.61971106 -419.18505698 301.61971106 -419.77685386 300.08695716 C-420.30261133 298.74439791 -420.82866913 297.40195625 -421.35497886 296.05961341 C-421.60763511 295.40283606 -421.86029136 294.74605872 -422.12060386 294.06937903 C-423.46835287 290.6494659 -424.92266273 287.47337933 -426.80810386 284.31351966 C-428.60497886 281.12211341 -428.60497886 281.12211341 -428.60497886 278.12211341 C-429.26497886 278.12211341 -429.92497886 278.12211341 -430.60497886 278.12211341 C-430.93497886 276.47211341 -431.26497886 274.82211341 -431.60497886 273.12211341 C-432.26497886 273.12211341 -432.92497886 273.12211341 -433.60497886 273.12211341 C-435.64667371 270.21662458 -436.60497886 268.72069295 -436.60497886 265.12211341 C-437.26497886 265.12211341 -437.92497886 265.12211341 -438.60497886 265.12211341 C-441.60497886 260.73749802 -441.60497886 260.73749802 -441.60497886 258.12211341 C-442.26497886 258.12211341 -442.92497886 258.12211341 -443.60497886 258.12211341 C-444.62364115 256.46678718 -445.62308699 254.79951203 -446.60497886 253.12211341 C-447.26497886 252.79211341 -447.92497886 252.46211341 -448.60497886 252.12211341 C-448.60497886 251.46211341 -448.60497886 250.80211341 -448.60497886 250.12211341 C-449.26497886 250.12211341 -449.92497886 250.12211341 -450.60497886 250.12211341 C-452.01513511 248.68851966 -452.01513511 248.68851966 -453.66747886 246.68461341 C-460.29309372 238.39150457 -460.29309372 238.39150457 -468.60497886 232.12211341 C-468.60497886 231.46211341 -468.60497886 230.80211341 -468.60497886 230.12211341 C-469.26497886 230.12211341 -469.92497886 230.12211341 -470.60497886 230.12211341 C-471.62694877 229.14457697 -472.62477511 228.1415253 -473.60497886 227.12211341 C-474.59497886 226.46211341 -475.58497886 225.80211341 -476.60497886 225.12211341 C-476.60497886 224.46211341 -476.60497886 223.80211341 -476.60497886 223.12211341 C-477.28560386 222.89523841 -477.96622886 222.66836341 -478.66747886 222.43461341 C-481.79661681 221.03648794 -484.24421263 219.3112044 -486.95654136 217.24320716 C-488.72558201 215.93079048 -488.72558201 215.93079048 -491.60497886 215.12211341 C-491.60497886 214.46211341 -491.60497886 213.80211341 -491.60497886 213.12211341 C-492.34747886 212.99836341 -493.08997886 212.87461341 -493.85497886 212.74711341 C-496.40639371 212.1672464 -498.33173616 211.38502602 -500.60497886 210.12211341 C-500.60497886 209.46211341 -500.60497886 208.80211341 -500.60497886 208.12211341 C-501.32685386 207.99836341 -502.04872886 207.87461341 -502.79247886 207.74711341 C-505.5621978 207.13162031 -508.00201426 206.23766966 -510.60497886 205.12211341 C-510.60497886 204.46211341 -510.60497886 203.80211341 -510.60497886 203.12211341 C-512.25497886 203.12211341 -513.90497886 203.12211341 -515.60497886 203.12211341 C-515.60497886 202.46211341 -515.60497886 201.80211341 -515.60497886 201.12211341 C-518.24497886 200.79211341 -520.88497886 200.46211341 -523.60497886 200.12211341 C-523.60497886 199.46211341 -523.60497886 198.80211341 -523.60497886 198.12211341 C-525.25497886 198.12211341 -526.90497886 198.12211341 -528.60497886 198.12211341 C-528.60497886 197.46211341 -528.60497886 196.80211341 -528.60497886 196.12211341 C-531.90497886 195.79211341 -535.20497886 195.46211341 -538.60497886 195.12211341 C-538.60497886 194.46211341 -538.60497886 193.80211341 -538.60497886 193.12211341 C-541.24497886 193.12211341 -543.88497886 193.12211341 -546.60497886 193.12211341 C-546.60497886 192.46211341 -546.60497886 191.80211341 -546.60497886 191.12211341 C-548.55404136 191.15305091 -548.55404136 191.15305091 -550.54247886 191.18461341 C-562.47997886 191.18461341 -562.47997886 191.18461341 -566.60497886 189.12211341 C-569.36482537 189.02312724 -572.09889342 188.98228109 -574.85888511 188.98930091 C-575.6749372 188.98834418 -576.4909893 188.98738745 -577.33177024 188.98640174 C-579.05752481 188.98572085 -580.78328194 188.98756879 -582.50903159 188.99174231 C-585.16021269 188.99709873 -587.81122489 188.99179074 -590.46240073 188.98539466 C-592.13622924 188.98605532 -593.81005763 188.98733624 -595.48388511 188.98930091 C-596.28177955 188.98727668 -597.07967399 188.98525244 -597.90174705 188.98316687 C-601.55293162 188.65229379 -601.55293162 188.65229379 -604.60497886 190.12211341 C-610.56849606 191.20033862 -616.56628283 191.21796572 -622.60497886 191.12211341 C-622.60497886 191.78211341 -622.60497886 192.44211341 -622.60497886 193.12211341 C-623.63622886 193.24586341 -624.66747886 193.36961341 -625.72997886 193.49711341 C-630.17482519 194.21402411 -634.05330346 195.44089006 -638.16747886 197.24711341 C-640.8032643 198.1932928 -642.82665547 198.28087474 -645.60497886 198.12211341 C-645.60497886 198.78211341 -645.60497886 199.44211341 -645.60497886 200.12211341 C-649.58558663 201.2928804 -653.52119603 202.37960744 -657.60497886 203.12211341 C-657.60497886 203.78211341 -657.60497886 204.44211341 -657.60497886 205.12211341 C-658.15283042 205.30644934 -658.70068198 205.49078528 -659.26513511 205.68070716 C-665.87746877 208.09985362 -671.66056506 211.39895582 -677.60131675 215.12382239 C-682.41497195 218.12211341 -682.41497195 218.12211341 -684.60497886 218.12211341 C-684.60497886 218.78211341 -684.60497886 219.44211341 -684.60497886 220.12211341 C-685.59497886 220.12211341 -686.58497886 220.12211341 -687.60497886 220.12211341 C-687.60497886 220.78211341 -687.60497886 221.44211341 -687.60497886 222.12211341 C-690.79524419 224.44230637 -694.02224555 226.46854419 -697.60497886 228.12211341 C-697.60497886 228.78211341 -697.60497886 229.44211341 -697.60497886 230.12211341 C-699.26030508 231.1407757 -700.92758024 232.14022153 -702.60497886 233.12211341 C-702.93497886 233.78211341 -703.26497886 234.44211341 -703.60497886 235.12211341 C-704.26497886 235.12211341 -704.92497886 235.12211341 -705.60497886 235.12211341 C-705.60497886 235.78211341 -705.60497886 236.44211341 -705.60497886 237.12211341 C-707.10107261 238.55961341 -707.10107261 238.55961341 -709.04247886 240.12211341 C-711.75686124 242.26736384 -711.75686124 242.26736384 -713.60497886 245.12211341 C-714.26497886 245.12211341 -714.92497886 245.12211341 -715.60497886 245.12211341 C-715.60497886 245.78211341 -715.60497886 246.44211341 -715.60497886 247.12211341 C-717.27164553 248.78878007 -718.93831219 250.45544674 -720.60497886 252.12211341 C-721.26497886 253.21523841 -721.92497886 254.30836341 -722.60497886 255.43461341 C-723.26497886 256.32148841 -723.92497886 257.20836341 -724.60497886 258.12211341 C-727.22997886 258.29008216 -727.22997886 258.29008216 -729.60497886 258.12211341 C-729.65172985 232.4788356 -729.68698291 206.8355642 -729.7086032 181.19225234 C-729.71890935 169.28523189 -729.73295707 157.37823794 -729.75585777 145.4712345 C-729.77581186 135.09133064 -729.78870011 124.71144598 -729.79315585 114.33152348 C-729.7957598 108.83706037 -729.80186651 103.34265218 -729.81643897 97.8482067 C-729.83005474 92.67234277 -729.83419342 87.49655617 -729.83119422 82.32067603 C-729.8317426 80.42527965 -729.83569615 78.52988057 -729.84338981 76.63449973 C-729.87844828 67.54885582 -729.9072514 58.98047816 -727.60497886 50.12211341 C-726.94497886 50.12211341 -726.28497886 50.12211341 -725.60497886 50.12211341 C-725.52247886 49.48273841 -725.43997886 48.84336341 -725.35497886 48.18461341 C-724.30977514 43.91669823 -722.46406059 40.09103674 -720.60497886 36.12211341 C-719.94497886 36.12211341 -719.28497886 36.12211341 -718.60497886 36.12211341 C-718.27497886 34.47211341 -717.94497886 32.82211341 -717.60497886 31.12211341 C-716.98622886 31.06023841 -716.36747886 30.99836341 -715.72997886 30.93461341 C-715.02872886 30.66648841 -714.32747886 30.39836341 -713.60497886 30.12211341 C-712.89250154 28.4745096 -712.23097503 26.80447812 -711.60497886 25.12211341 C-709.91747886 23.18461341 -709.91747886 23.18461341 -707.60497886 21.12211341 C-707.06357261 20.62324622 -706.52216636 20.12437903 -705.96435386 19.61039466 C-702.68839402 16.66915246 -699.89885259 14.42328727 -695.60497886 13.12211341 C-695.60497886 12.46211341 -695.60497886 11.80211341 -695.60497886 11.12211341 C-688.97997886 8.12211341 -688.97997886 8.12211341 -685.60497886 8.12211341 C-685.60497886 7.46211341 -685.60497886 6.80211341 -685.60497886 6.12211341 C-681.14997886 5.62711341 -681.14997886 5.62711341 -676.60497886 5.12211341 C-676.60497886 4.46211341 -676.60497886 3.80211341 -676.60497886 3.12211341 C-674.55419761 2.89424882 -672.50341636 2.66638424 -670.45263511 2.43851966 C-668.59357657 2.30324727 -668.59357657 2.30324727 -667.60497886 1.12211341 C-665.6394966 1.01924682 -663.67025732 0.98810085 -661.70209056 0.98344821 C-659.76116927 0.9752366 -659.76116927 0.9752366 -657.78103745 0.9668591 C-656.32349166 0.96578209 -654.86594579 0.96479751 -653.40839988 0.96389502 C-651.8707455 0.95933026 -650.33309235 0.95433006 -648.79544067 0.94893038 C-644.53161743 0.93525843 -640.26780223 0.92789777 -636.0039627 0.92150322 C-631.38167033 0.91350148 -626.75939445 0.89978672 -622.13711387 0.88680953 C-612.95738932 0.86198412 -603.77766051 0.84265967 -594.59791956 0.82507093 C-586.97115456 0.81031939 -579.34439719 0.79335795 -571.71764022 0.77492827 C-570.07082978 0.77095009 -570.07082978 0.77095009 -568.39075043 0.76689154 C-566.15228426 0.76147511 -563.91381809 0.7560545 -561.67535194 0.75062981 C-538.95474567 0.69586877 -516.23412719 0.64870822 -493.51349878 0.60421073 C-491.00777795 0.59930272 -488.50205711 0.5943933 -485.99633628 0.58948249 C-484.75249238 0.58704502 -483.50864848 0.58460756 -482.22711234 0.58209624 C-469.71682487 0.55746187 -457.20654145 0.53099738 -444.69625799 0.50441602 C-341.16866475 0.28471666 -237.64104054 0.11582878 0 0 Z " fill="#FDFDFD" transform="translate(761.6049788594246,27.877886593341827)"/>
<path d="M0 0 C2.65187751 0.76838854 5.30629871 1.38564707 8 2 C8 2.66 8 3.32 8 4 C8.99 4 9.98 4 11 4 C11 4.66 11 5.32 11 6 C12.65 6.33 14.3 6.66 16 7 C16 7.66 16 8.32 16 9 C16.99 9 17.98 9 19 9 C19 9.66 19 10.32 19 11 C20.98 11.495 20.98 11.495 23 12 C23 12.66 23 13.32 23 14 C23.66 14 24.32 14 25 14 C26.4375 15.49609375 26.4375 15.49609375 28 17.4375 C30.14525044 20.15188238 30.14525044 20.15188238 33 22 C33 22.66 33 23.32 33 24 C33.66 24 34.32 24 35 24 C35.33 25.65 35.66 27.3 36 29 C36.66 29 37.32 29 38 29 C40.43160605 32.36683915 41 33.73350364 41 38 C41.66 38 42.32 38 43 38 C43 38.99 43 39.98 43 41 C43.66 41 44.32 41 45 41 C45.33 43.97 45.66 46.94 46 50 C46.66 50 47.32 50 48 50 C49.79944825 55.39928987 50.28596269 60.08402807 50.25396729 65.75363159 C50.25708727 66.61080847 50.26020725 67.46798535 50.26342177 68.35113728 C50.27137048 71.21056214 50.26509029 74.06977294 50.25878906 76.92919922 C50.26150035 78.98456954 50.26506206 81.03993889 50.26940918 83.0953064 C50.27852015 88.66972283 50.27499391 94.24406516 50.26865101 99.81848288 C50.263583 105.6572397 50.26828482 111.49599024 50.27142334 117.33474731 C50.27506122 127.14163348 50.27026915 136.94848951 50.26074219 146.75537109 C50.24986406 158.08372918 50.25337929 169.41201525 50.264395 180.74037158 C50.27348018 190.47391242 50.27474694 200.2074316 50.26951766 209.94097531 C50.26640396 215.75107638 50.26597203 221.56114364 50.27259064 227.37124252 C50.27838113 232.83612298 50.27433598 238.30091091 50.26280212 243.7657814 C50.26016439 245.7680267 50.26090543 247.77027982 50.26532745 249.77252197 C50.27081957 252.51258576 50.26390442 255.25235587 50.25396729 257.99240112 C50.25842873 258.77850985 50.26289017 259.56461859 50.26748681 260.37454879 C50.1615513 275.50910635 43.86639457 290.29628777 38 304 C37.34 304 36.68 304 36 304 C35.67 305.65 35.34 307.3 35 309 C34.34 309 33.68 309 33 309 C32.9175 309.53625 32.835 310.0725 32.75 310.625 C31.72418729 313.87340691 30.03436106 316.28751859 28 319 C27.34 319 26.68 319 26 319 C25.67 320.32 25.34 321.64 25 323 C24.34 323 23.68 323 23 323 C22.731875 323.763125 22.46375 324.52625 22.1875 325.3125 C21.04865495 327.88988618 20.18583329 329.26954864 18 331 C17.34 331 16.68 331 16 331 C16 331.66 16 332.32 16 333 C12.53846154 336 12.53846154 336 10 336 C10 336.66 10 337.32 10 338 C6.53846154 341 6.53846154 341 4 341 C4 341.66 4 342.32 4 343 C1.09451118 345.04169485 -0.40142046 346 -4 346 C-4 346.66 -4 347.32 -4 348 C-18.8109029 356.67397785 -18.8109029 356.67397785 -26 356 C-26 356.66 -26 357.32 -26 358 C-31.69256929 359.85339465 -37.37836131 360.7184302 -43.3046875 361.53515625 C-45.90993824 361.71772372 -45.90993824 361.71772372 -47 363 C-48.99961455 363.09672695 -51.00270193 363.1218703 -53.00465393 363.12025452 C-54.96300674 363.12231651 -54.96300674 363.12231651 -56.96092224 363.12442017 C-58.42129539 363.12088055 -59.88166831 363.11724573 -61.34204102 363.11352539 C-62.86926268 363.11324353 -64.39648447 363.11340123 -65.92370605 363.1139679 C-70.08261688 363.11425591 -74.24149911 363.10835855 -78.40040326 363.10139394 C-82.74194524 363.09516106 -87.08348781 363.09455665 -91.42503357 363.09336853 C-99.65213582 363.09025502 -107.87922486 363.08204137 -116.10632128 363.07201904 C-125.47013064 363.06085851 -134.83394062 363.05534761 -144.19775498 363.05032361 C-163.46517749 363.03985877 -182.73258769 363.02225895 -202 363 C-201.99861731 364.36416786 -201.99861731 364.36416786 -201.99720669 365.75589466 C-201.97514241 387.86338294 -201.95858402 409.97086932 -201.94818783 432.07836628 C-201.94302695 442.76928922 -201.9359882 453.46020482 -201.92456055 464.15112305 C-201.91460737 473.46704923 -201.90814505 482.7829701 -201.90591151 492.09890145 C-201.90460548 497.03365149 -201.90152642 501.96838631 -201.89426994 506.90313148 C-201.88749975 511.54463383 -201.88538509 516.18611465 -201.88689232 520.82762146 C-201.88661644 522.53406071 -201.88461723 524.24050066 -201.88079453 525.94693565 C-201.87584171 528.27119448 -201.87700763 530.59537135 -201.87974548 532.91963196 C-201.87836279 534.87337219 -201.87836279 534.87337219 -201.87695217 536.86658192 C-202 540 -202 540 -203 543 C-205.77708986 544.05545501 -208.44050731 544.12520838 -211.38815403 544.12584114 C-212.70359852 544.12975276 -212.70359852 544.12975276 -214.04561764 544.13374341 C-215.00465699 544.13151268 -215.96369634 544.12928196 -216.95179749 544.12698364 C-217.97398658 544.12854363 -218.99617567 544.13010362 -220.04934019 544.13171089 C-223.48481229 544.13570911 -226.92024044 544.13253577 -230.35571289 544.12939453 C-232.81445848 544.13074908 -235.27320386 544.13252932 -237.73194885 544.13470459 C-243.72287995 544.13879758 -249.71379371 544.13818954 -255.70472414 544.13529195 C-260.57254884 544.13303488 -265.44037004 544.13272672 -270.30819511 544.13381577 C-271.0006273 544.133969 -271.69305948 544.13412223 -272.40647445 544.13428011 C-273.81306112 544.13459983 -275.21964779 544.13492404 -276.62623446 544.1352527 C-289.8191138 544.138105 -303.01198618 544.13482426 -316.20486438 544.12945233 C-327.53054132 544.12498353 -338.85620801 544.12576134 -350.18188477 544.13037109 C-363.32865058 544.13571955 -376.47541031 544.13783138 -389.62217706 544.13475883 C-391.02332493 544.13444027 -392.42447279 544.1341259 -393.82562065 544.13381577 C-394.51504613 544.13366149 -395.20447161 544.13350721 -395.91478877 544.13334826 C-400.77855739 544.132484 -405.64232215 544.13394403 -410.50609016 544.13629532 C-417.0485624 544.13938858 -423.59101822 544.13719436 -430.13348961 544.13140106 C-432.53978061 544.13007468 -434.94607323 544.13046553 -437.35236359 544.13266373 C-440.62666013 544.13537992 -443.90089368 544.13198827 -447.17518616 544.12698364 C-448.13645623 544.12921436 -449.0977263 544.13144509 -450.08812577 544.13374341 C-450.96248101 544.13113566 -451.83683625 544.12852791 -452.73768711 544.12584114 C-453.49382032 544.12567879 -454.24995353 544.12551644 -455.02899987 544.12534916 C-457 544 -457 544 -460 543 C-460.04581714 508.93525651 -460.08103935 474.87052072 -460.10213066 440.80575325 C-460.10463195 436.7804956 -460.10722061 432.75523802 -460.10986328 428.72998047 C-460.1103879 427.92865282 -460.11091252 427.12732517 -460.11145304 426.30171487 C-460.1201463 413.34119339 -460.13591032 400.38068973 -460.15430559 387.4201788 C-460.17303469 374.11309594 -460.18412308 360.80602238 -460.18817699 347.49892688 C-460.19091581 339.29337063 -460.19955386 331.08786475 -460.21583293 322.88232401 C-460.226437 317.24899136 -460.2295929 311.61568459 -460.22700275 305.98234269 C-460.22572677 302.73633982 -460.22873555 299.49044271 -460.23841095 296.24445152 C-460.24841372 292.71467674 -460.24594938 289.18511454 -460.24050903 285.65533447 C-460.24633472 284.64362348 -460.2521604 283.63191248 -460.25816262 282.58954358 C-460.21676944 272.60089087 -459.49059094 263.50156017 -454 255 C-453.23959428 252.73014106 -453.23959428 252.73014106 -453 251 C-452.34 251 -451.68 251 -451 251 C-451 250.01 -451 249.02 -451 248 C-450.34 248 -449.68 248 -449 248 C-448.67 246.35 -448.34 244.7 -448 243 C-447.34 243 -446.68 243 -446 243 C-446 242.34 -446 241.68 -446 241 C-445.34 241 -444.68 241 -444 241 C-443.67 240.01 -443.34 239.02 -443 238 C-442.34 238 -441.68 238 -441 238 C-441 237.34 -441 236.68 -441 236 C-440.34 236 -439.68 236 -439 236 C-438.67 235.01 -438.34 234.02 -438 233 C-437.34 233 -436.68 233 -436 233 C-436 232.34 -436 231.68 -436 231 C-435.34 231 -434.68 231 -434 231 C-433.67 230.01 -433.34 229.02 -433 228 C-431.68 228 -430.36 228 -429 228 C-428.76925781 227.401875 -428.53851563 226.80375 -428.30078125 226.1875 C-424.2297929 219.34139346 -413.3093567 216.89612756 -406.140625 214.76171875 C-398.6902458 212.95472379 -391.55908086 212.86007947 -383.9209137 212.87974548 C-382.70620122 212.87889106 -381.49148875 212.87803663 -380.23996681 212.87715632 C-376.88089453 212.87579691 -373.52188087 212.87891111 -370.16281569 212.88393438 C-366.53577467 212.88826126 -362.90873538 212.88679087 -359.2816925 212.8860321 C-353.00175614 212.88550829 -346.72183018 212.88864024 -340.44189644 212.89426994 C-331.36221723 212.9024042 -322.28254304 212.90500214 -313.20286059 212.90625793 C-298.4709309 212.90844542 -283.73900676 212.9150973 -269.00708008 212.92456055 C-254.69816109 212.9337425 -240.38924361 212.9408195 -226.08032227 212.94506836 C-225.19801064 212.94533108 -224.31569901 212.94559381 -223.40665067 212.94586449 C-218.98026003 212.94716955 -214.55386938 212.94843325 -210.12747872 212.94967639 C-173.41831523 212.96003957 -136.70915805 212.97764966 -100 213 C-100.00138269 211.88930759 -100.00138269 211.88930759 -100.00279331 210.75617695 C-100.02493143 192.69260386 -100.04145186 174.6290335 -100.05181217 156.56544971 C-100.05695622 147.82984236 -100.06396268 139.0942441 -100.07543945 130.35864258 C-100.08544428 122.73974895 -100.09186717 115.1208619 -100.09408849 107.50196189 C-100.09538579 103.47233145 -100.09840902 99.44271984 -100.10573006 95.41309547 C-100.11258201 91.61039359 -100.11459854 87.80771807 -100.11310768 84.0050106 C-100.11350848 81.96427446 -100.11885539 79.9235411 -100.12442017 77.8828125 C-100.09964057 55.4164337 -100.09964057 55.4164337 -96 45 C-95.608125 43.824375 -95.21625 42.64875 -94.8125 41.4375 C-94.544375 40.633125 -94.27625 39.82875 -94 39 C-93.34 39 -92.68 39 -92 39 C-91.938125 38.01 -91.938125 38.01 -91.875 37 C-90.77827876 33.2398129 -88.81677895 30.88419323 -86.375 27.8671875 C-84.80969136 25.94224971 -84.80969136 25.94224971 -84 23 C-83.34 23 -82.68 23 -82 23 C-82 22.34 -82 21.68 -82 21 C-81.34 21 -80.68 21 -80 21 C-79.731875 20.360625 -79.46375 19.72125 -79.1875 19.0625 C-78 17 -78 17 -75 16 C-74.67 15.01 -74.34 14.02 -74 13 C-72.6846659 12.29848848 -71.34882408 11.63474075 -70 11 C-69.33871094 10.32324219 -69.33871094 10.32324219 -68.6640625 9.6328125 C-63.53067016 4.59582189 -57.17257153 1.31185094 -50 1 C-50 0.34 -50 -0.32 -50 -1 C-35.03386145 -5.7764272 -14.39482603 -6.54310274 0 0 Z " fill="#FEFEFE" transform="translate(492,359)"/>
<path d="M0 0 C1.34888732 0.00015905 2.69778075 0.00584927 4.04663086 0.01586914 C5.10991859 0.01799156 5.10991859 0.01799156 6.19468689 0.02015686 C8.46699173 0.02577096 10.73919936 0.03832576 13.01147461 0.05102539 C14.54858257 0.05603858 16.08569206 0.0606018 17.62280273 0.06469727 C21.39823103 0.07574497 25.17358632 0.09301898 28.94897461 0.11352539 C28.94897461 0.77352539 28.94897461 1.43352539 28.94897461 2.11352539 C30.77428711 2.02071289 30.77428711 2.02071289 32.63647461 1.92602539 C38.94760901 1.89578034 44.87569976 3.53653903 50.94897461 5.11352539 C50.94897461 5.77352539 50.94897461 6.43352539 50.94897461 7.11352539 C53.25897461 7.44352539 55.56897461 7.77352539 57.94897461 8.11352539 C57.94897461 8.77352539 57.94897461 9.43352539 57.94897461 10.11352539 C58.67084961 10.23727539 59.39272461 10.36102539 60.13647461 10.48852539 C62.90619355 11.10401849 65.34601001 11.99796913 67.94897461 13.11352539 C67.94897461 13.77352539 67.94897461 14.43352539 67.94897461 15.11352539 C68.93897461 15.11352539 69.92897461 15.11352539 70.94897461 15.11352539 C70.94897461 15.77352539 70.94897461 16.43352539 70.94897461 17.11352539 C72.12459961 17.57758789 72.12459961 17.57758789 73.32397461 18.05102539 C75.94897461 19.11352539 75.94897461 19.11352539 77.94897461 20.11352539 C77.94897461 20.77352539 77.94897461 21.43352539 77.94897461 22.11352539 C78.67084961 22.36102539 79.39272461 22.60852539 80.13647461 22.86352539 C83.22504043 24.23622131 85.45908878 25.83705835 87.94897461 28.11352539 C87.94897461 28.77352539 87.94897461 29.43352539 87.94897461 30.11352539 C88.60897461 30.11352539 89.26897461 30.11352539 89.94897461 30.11352539 C91.57397461 31.48852539 91.57397461 31.48852539 92.94897461 33.11352539 C92.94897461 33.77352539 92.94897461 34.43352539 92.94897461 35.11352539 C93.60897461 35.11352539 94.26897461 35.11352539 94.94897461 35.11352539 C96.45678711 36.79321289 96.45678711 36.79321289 98.07397461 38.98852539 C98.61280273 39.70782227 99.15163086 40.42711914 99.70678711 41.16821289 C100.94897461 43.11352539 100.94897461 43.11352539 100.94897461 45.11352539 C101.60897461 45.11352539 102.26897461 45.11352539 102.94897461 45.11352539 C102.94897461 45.77352539 102.94897461 46.43352539 102.94897461 47.11352539 C103.60897461 47.11352539 104.26897461 47.11352539 104.94897461 47.11352539 C105.27897461 48.76352539 105.60897461 50.41352539 105.94897461 52.11352539 C106.60897461 52.11352539 107.26897461 52.11352539 107.94897461 52.11352539 C107.94897461 53.10352539 107.94897461 54.09352539 107.94897461 55.11352539 C108.60897461 55.11352539 109.26897461 55.11352539 109.94897461 55.11352539 C110.95833997 57.19233739 111.95615307 59.27676159 112.94897461 61.36352539 C113.50584961 62.52368164 114.06272461 63.68383789 114.63647461 64.87915039 C115.94897461 68.11352539 115.94897461 68.11352539 115.94897461 72.11352539 C116.60897461 72.11352539 117.26897461 72.11352539 117.94897461 72.11352539 C118.14233398 72.91016602 118.33569336 73.70680664 118.53491211 74.52758789 C118.79530273 75.58719727 119.05569336 76.64680664 119.32397461 77.73852539 C119.57920898 78.78266602 119.83444336 79.82680664 120.09741211 80.90258789 C120.86283052 84.0560228 120.86283052 84.0560228 122.00756836 86.73852539 C123.45595063 91.93106599 123.4717327 97.12001285 123.63647461 102.48852539 C123.67554932 103.64578125 123.71462402 104.80303711 123.75488281 105.99536133 C124.40009246 128.50705556 124.40009246 128.50705556 120.94897461 138.11352539 C120.45684687 139.90167539 119.97737449 141.69336316 119.51147461 143.48852539 C118.2576339 148.16483945 116.73173801 152.61417013 114.94897461 157.11352539 C114.28897461 157.11352539 113.62897461 157.11352539 112.94897461 157.11352539 C112.7652832 157.95657227 112.7652832 157.95657227 112.57788086 158.81665039 C111.89698771 161.30339058 110.95545136 163.51867315 109.88647461 165.86352539 C109.52424805 166.66274414 109.16202148 167.46196289 108.78881836 168.28540039 C108.51166992 168.88868164 108.23452148 169.49196289 107.94897461 170.11352539 C107.28897461 170.11352539 106.62897461 170.11352539 105.94897461 170.11352539 C105.63959961 170.89727539 105.33022461 171.68102539 105.01147461 172.48852539 C103.94897461 175.11352539 103.94897461 175.11352539 102.94897461 177.11352539 C102.28897461 177.11352539 101.62897461 177.11352539 100.94897461 177.11352539 C100.68084961 177.91790039 100.41272461 178.72227539 100.13647461 179.55102539 C99.74459961 180.39665039 99.35272461 181.24227539 98.94897461 182.11352539 C97.95897461 182.44352539 96.96897461 182.77352539 95.94897461 183.11352539 C95.7981543 183.72325195 95.64733398 184.33297852 95.49194336 184.96118164 C94.77399833 187.8071364 93.50597155 188.69984982 91.26147461 190.55102539 C90.54217773 191.15301758 89.82288086 191.75500977 89.08178711 192.37524414 C88.02604492 193.23569336 88.02604492 193.23569336 86.94897461 194.11352539 C83.11311494 197.20556598 83.11311494 197.20556598 79.55444336 200.59790039 C77.698487 202.34999545 75.82478885 203.41513965 73.57397461 204.61352539 C71.01192728 205.99020991 68.53662772 207.37348321 66.07397461 208.92602539 C63.94897461 210.11352539 63.94897461 210.11352539 60.94897461 210.11352539 C60.94897461 210.77352539 60.94897461 211.43352539 60.94897461 212.11352539 C59.7023413 212.6218613 58.45148074 213.11983684 57.19897461 213.61352539 C56.50288086 213.89196289 55.80678711 214.17040039 55.08959961 214.45727539 C52.94897461 215.11352539 52.94897461 215.11352539 48.94897461 215.11352539 C48.94897461 215.77352539 48.94897461 216.43352539 48.94897461 217.11352539 C41.92890944 219.00217237 35.18013935 220.40226329 27.94897461 221.11352539 C27.61897461 221.44352539 27.28897461 221.77352539 26.94897461 222.11352539 C24.81544287 222.21355828 22.67859919 222.24433587 20.54272461 222.24633789 C19.24206055 222.24762695 17.94139648 222.24891602 16.60131836 222.25024414 C15.92053223 222.24814941 15.23974609 222.24605469 14.53833008 222.24389648 C12.45768946 222.23854779 10.37726472 222.24384219 8.29663086 222.25024414 C6.34563477 222.24831055 6.34563477 222.24831055 4.35522461 222.24633789 C3.15188477 222.24520996 1.94854492 222.24408203 0.70874023 222.24291992 C-2.05102539 222.11352539 -2.05102539 222.11352539 -3.05102539 221.11352539 C-5.21144339 220.74184057 -7.37978161 220.41561148 -9.55102539 220.11352539 C-15.93991428 219.2246365 -15.93991428 219.2246365 -17.05102539 218.11352539 C-19.37920503 217.74591808 -21.71286389 217.41110958 -24.05102539 217.11352539 C-24.05102539 216.45352539 -24.05102539 215.79352539 -24.05102539 215.11352539 C-25.58436523 214.96657227 -25.58436523 214.96657227 -27.14868164 214.81665039 C-31.21831623 214.0833829 -33.90197536 212.88288037 -37.48852539 210.86352539 C-38.60485352 210.23575195 -39.72118164 209.60797852 -40.87133789 208.96118164 C-41.92063477 208.35145508 -42.96993164 207.74172852 -44.05102539 207.11352539 C-44.91469727 206.61723633 -45.77836914 206.12094727 -46.66821289 205.60961914 C-48.50598971 204.51414719 -50.2869748 203.32414835 -52.05102539 202.11352539 C-52.05102539 201.45352539 -52.05102539 200.79352539 -52.05102539 200.11352539 C-52.83477539 199.80415039 -53.61852539 199.49477539 -54.42602539 199.17602539 C-57.05102539 198.11352539 -57.05102539 198.11352539 -59.05102539 197.11352539 C-59.05102539 196.45352539 -59.05102539 195.79352539 -59.05102539 195.11352539 C-60.04102539 194.78352539 -61.03102539 194.45352539 -62.05102539 194.11352539 C-62.05102539 193.45352539 -62.05102539 192.79352539 -62.05102539 192.11352539 C-62.71102539 192.11352539 -63.37102539 192.11352539 -64.05102539 192.11352539 C-64.05102539 191.45352539 -64.05102539 190.79352539 -64.05102539 190.11352539 C-65.04102539 189.78352539 -66.03102539 189.45352539 -67.05102539 189.11352539 C-67.05102539 188.45352539 -67.05102539 187.79352539 -67.05102539 187.11352539 C-67.71102539 187.11352539 -68.37102539 187.11352539 -69.05102539 187.11352539 C-69.05102539 186.45352539 -69.05102539 185.79352539 -69.05102539 185.11352539 C-69.71102539 185.11352539 -70.37102539 185.11352539 -71.05102539 185.11352539 C-73.75617721 182.87883476 -75.39824247 180.18297939 -77.05102539 177.11352539 C-77.05102539 176.45352539 -77.05102539 175.79352539 -77.05102539 175.11352539 C-77.71102539 175.11352539 -78.37102539 175.11352539 -79.05102539 175.11352539 C-79.05102539 174.12352539 -79.05102539 173.13352539 -79.05102539 172.11352539 C-79.71102539 172.11352539 -80.37102539 172.11352539 -81.05102539 172.11352539 C-81.38102539 170.46352539 -81.71102539 168.81352539 -82.05102539 167.11352539 C-82.71102539 167.11352539 -83.37102539 167.11352539 -84.05102539 167.11352539 C-86.54053796 163.64985573 -87.93899856 159.94680079 -89.35571289 155.96508789 C-90.03959852 154.01486747 -90.03959852 154.01486747 -91.23852539 151.92602539 C-92.2885799 149.5835961 -92.19190739 147.64940137 -92.05102539 145.11352539 C-92.71102539 145.11352539 -93.37102539 145.11352539 -94.05102539 145.11352539 C-94.17477539 144.06165039 -94.29852539 143.00977539 -94.42602539 141.92602539 C-94.83687765 138.3055519 -94.83687765 138.3055519 -96.07128906 135.98095703 C-97.49891486 131.80267022 -97.35625378 127.80869334 -97.35180664 123.42211914 C-97.35609177 122.48102798 -97.36037689 121.53993683 -97.36479187 120.57032776 C-97.37052684 118.57911989 -97.37104157 116.58789108 -97.36669922 114.59667969 C-97.36356147 111.58564301 -97.38693142 108.575611 -97.41235352 105.56469727 C-97.44344897 95.6778826 -97.36475467 86.54317274 -94.05102539 77.11352539 C-93.39102539 77.11352539 -92.73102539 77.11352539 -92.05102539 77.11352539 C-91.86540039 75.28821289 -91.86540039 75.28821289 -91.67602539 73.42602539 C-91.26211233 70.04873481 -90.50529088 67.21595844 -89.05102539 64.11352539 C-88.39102539 64.11352539 -87.73102539 64.11352539 -87.05102539 64.11352539 C-86.95692383 63.24469727 -86.86282227 62.37586914 -86.76586914 61.48071289 C-85.97570641 57.75874417 -84.68331596 55.41421237 -82.61352539 52.23852539 C-81.99606445 51.27172852 -81.37860352 50.30493164 -80.74243164 49.30883789 C-80.18426758 48.58438477 -79.62610352 47.85993164 -79.05102539 47.11352539 C-78.39102539 47.11352539 -77.73102539 47.11352539 -77.05102539 47.11352539 C-76.58696289 45.93790039 -76.58696289 45.93790039 -76.11352539 44.73852539 C-75.05102539 42.11352539 -75.05102539 42.11352539 -74.05102539 40.11352539 C-73.39102539 40.11352539 -72.73102539 40.11352539 -72.05102539 40.11352539 C-71.72102539 39.12352539 -71.39102539 38.13352539 -71.05102539 37.11352539 C-70.39102539 37.11352539 -69.73102539 37.11352539 -69.05102539 37.11352539 C-69.05102539 36.45352539 -69.05102539 35.79352539 -69.05102539 35.11352539 C-68.39102539 35.11352539 -67.73102539 35.11352539 -67.05102539 35.11352539 C-66.78290039 34.47415039 -66.51477539 33.83477539 -66.23852539 33.17602539 C-65.05102539 31.11352539 -65.05102539 31.11352539 -62.05102539 30.11352539 C-61.55602539 28.62852539 -61.55602539 28.62852539 -61.05102539 27.11352539 C-60.39102539 27.11352539 -59.73102539 27.11352539 -59.05102539 27.11352539 C-59.05102539 26.45352539 -59.05102539 25.79352539 -59.05102539 25.11352539 C-58.39102539 25.11352539 -57.73102539 25.11352539 -57.05102539 25.11352539 C-57.05102539 24.45352539 -57.05102539 23.79352539 -57.05102539 23.11352539 C-56.26727539 23.03102539 -55.48352539 22.94852539 -54.67602539 22.86352539 C-53.80977539 22.61602539 -52.94352539 22.36852539 -52.05102539 22.11352539 C-51.34951387 20.79819129 -50.68576614 19.46234947 -50.05102539 18.11352539 C-47.11129315 16.0029484 -45.70454402 15.11352539 -42.05102539 15.11352539 C-42.05102539 14.45352539 -42.05102539 13.79352539 -42.05102539 13.11352539 C-40.07102539 12.78352539 -38.09102539 12.45352539 -36.05102539 12.11352539 C-36.05102539 11.45352539 -36.05102539 10.79352539 -36.05102539 10.11352539 C-34.73102539 10.11352539 -33.41102539 10.11352539 -32.05102539 10.11352539 C-32.05102539 9.45352539 -32.05102539 8.79352539 -32.05102539 8.11352539 C-28.58602539 7.61852539 -28.58602539 7.61852539 -25.05102539 7.11352539 C-25.05102539 6.45352539 -25.05102539 5.79352539 -25.05102539 5.11352539 C-12.46803872 2.06368563 -12.46803872 2.06368563 -7.30102539 1.48852539 C-3.77722816 1.0819334 -3.4829224 0.12959582 0 0 Z " fill="#FCFCFC" transform="translate(165.051025390625,282.886474609375)"/>
<path d="M0 0 C11.90974518 -0.00181279 23.81948989 -0.0040608 35.7292347 -0.00757873 C60.75247175 -0.01491799 85.77570264 -0.01969908 110.79894066 -0.01436579 C112.91299375 -0.01392271 115.02704684 -0.01348376 117.14109993 -0.01304901 C118.17685354 -0.01283495 119.21260716 -0.01262089 120.27974725 -0.01240034 C127.44882397 -0.01116013 134.61789759 -0.01237902 141.78697395 -0.01472747 C150.34189735 -0.01749724 158.89681163 -0.01683279 167.45173401 -0.01155569 C171.75393393 -0.00898613 176.05611858 -0.00793531 180.35831833 -0.01127827 C184.27810936 -0.01427836 188.19787051 -0.01258617 192.11765885 -0.00729245 C193.51943503 -0.00618626 194.92121381 -0.00671245 196.32298827 -0.00916511 C205.68653764 -0.02429684 215.0814805 0.10064976 224.39860725 1.12139618 C224.72860725 1.45139618 225.05860725 1.78139618 225.39860725 2.12139618 C226.7460781 2.352147 228.1023829 2.53292681 229.46110725 2.68389618 C230.76048225 2.82827118 232.05985725 2.97264618 233.39860725 3.12139618 C233.39860725 3.78139618 233.39860725 4.44139618 233.39860725 5.12139618 C235.38428434 5.31670868 237.36996142 5.51202118 239.3556385 5.70733368 C241.39860725 6.12139618 241.39860725 6.12139618 244.39860725 8.12139618 C244.06860725 8.78139618 243.73860725 9.44139618 243.39860725 10.12139618 C242.75536507 9.86745087 242.11212288 9.61350556 241.4493885 9.35186493 C240.54575569 9.00768525 239.64212288 8.66350556 238.71110725 8.30889618 C237.84099007 7.97245087 236.97087288 7.63600556 236.0743885 7.28936493 C225.34117456 3.87891757 215.34889819 2.68470989 204.1132164 2.74666607 C202.60353015 2.74383417 201.09384591 2.73968814 199.58416641 2.73436084 C195.45290437 2.72355985 191.32185811 2.73130297 187.19060409 2.74219488 C182.68949602 2.75073455 178.18841618 2.7418024 173.68730962 2.73513073 C165.8041258 2.72584695 157.92100578 2.72768377 150.03782272 2.73686326 C138.31508743 2.75047608 126.59240104 2.74689333 114.86966218 2.73990465 C93.93147141 2.72798082 72.99331076 2.73306128 52.05512165 2.74518293 C33.73051099 2.75571925 15.40591059 2.7602584 -2.91870308 2.75888741 C-4.13423141 2.75880338 -5.34975975 2.75871935 -6.60212227 2.75863277 C-11.53637326 2.75828052 -16.47062425 2.75789651 -21.40487524 2.7574672 C-67.69395033 2.75350198 -113.98300729 2.76622052 -160.27207719 2.78699376 C-201.39292133 2.80536092 -242.51374807 2.8111766 -283.63459587 2.80572236 C-286.27466926 2.80537592 -288.91474266 2.80502982 -291.55481605 2.80468407 C-292.86002049 2.80451307 -294.16522493 2.80434207 -295.50998103 2.8041659 C-302.08027894 2.80331235 -308.65057686 2.80248856 -315.22087479 2.8016969 C-316.51710729 2.80153982 -317.81333979 2.80138274 -319.14885207 2.8012209 C-353.51217297 2.79723021 -387.8754922 2.80270734 -422.23881209 2.81120819 C-425.93673098 2.81211522 -429.63464986 2.81302087 -433.33256875 2.81392342 C-435.78565413 2.81452453 -438.23873951 2.81513315 -440.69182489 2.81574933 C-457.7899912 2.81996986 -474.88815423 2.8205493 -491.9863209 2.81864383 C-514.02281812 2.81620026 -536.05929772 2.82027743 -558.09579013 2.83585384 C-569.7481958 2.84390058 -581.40057212 2.8465082 -593.05297953 2.84121148 C-600.83883523 2.83823218 -608.62466501 2.84254376 -616.41051452 2.85276006 C-620.84492214 2.85838019 -625.27926998 2.86090166 -629.71367805 2.85459348 C-633.75479379 2.8489142 -637.79579386 2.85256858 -641.83689812 2.86339225 C-643.28290145 2.86568279 -644.72891506 2.86470037 -646.17491214 2.85986971 C-655.8430966 2.83003062 -665.06730257 3.62749067 -674.60139275 5.12139618 C-673.60139275 3.12139618 -673.60139275 3.12139618 -670.94627571 2.01275325 C-667.50050129 1.09451025 -664.64310401 0.86690844 -661.0832653 0.85968316 C-659.77936254 0.8522177 -658.47545977 0.84475225 -657.13204479 0.83706057 C-655.68921003 0.83883825 -654.24637548 0.84079923 -652.80354118 0.84292328 C-651.26156987 0.83791574 -649.71960117 0.83203834 -648.17763615 0.82536948 C-643.92509355 0.80952812 -639.67261701 0.80613383 -635.42004848 0.80472037 C-630.80124293 0.80101779 -626.18247297 0.78583817 -621.56368828 0.77212441 C-612.40135817 0.74675664 -603.23903928 0.73213904 -594.07668227 0.72082347 C-583.11878842 0.70682102 -572.16092773 0.68161173 -561.2030555 0.65617052 C-539.76483373 0.60683538 -518.32660316 0.56939819 -496.88834965 0.53710619 C-478.14571632 0.50887233 -459.40309508 0.47664088 -440.66047478 0.44079316 C-332.05136649 0.23400402 -223.44218332 0.10268119 0 0 Z " fill="#A6A6A6" transform="translate(761.6013927459717,27.87860381603241)"/>
<path d="M0 0 C0 0.66 0 1.32 0 2 C-51.15 2 -102.3 2 -155 2 C-154.98839844 14.74238281 -154.97679687 27.48476563 -154.96484375 40.61328125 C-154.95973671 48.66601583 -154.95488164 56.71874923 -154.95117188 64.77148438 C-154.94523105 77.56470133 -154.93823537 90.35791171 -154.92456055 103.15112305 C-154.91460737 112.46704923 -154.90814505 121.7829701 -154.90591151 131.09890145 C-154.90460548 136.03365149 -154.90152642 140.96838631 -154.89426994 145.90313148 C-154.88749975 150.54463383 -154.88538509 155.18611465 -154.88689232 159.82762146 C-154.88661644 161.53406071 -154.88461723 163.24050066 -154.88079453 164.94693565 C-154.87584171 167.27119448 -154.87700763 169.59537135 -154.87974548 171.91963196 C-154.87836279 173.87337219 -154.87836279 173.87337219 -154.87695217 175.86658192 C-155 179 -155 179 -156 182 C-158.77708986 183.05545501 -161.44050731 183.12520838 -164.38815403 183.12584114 C-165.70359852 183.12975276 -165.70359852 183.12975276 -167.04561764 183.13374341 C-168.00465699 183.13151268 -168.96369634 183.12928196 -169.95179749 183.12698364 C-170.97398658 183.12854363 -171.99617567 183.13010362 -173.04934019 183.13171089 C-176.48481229 183.13570911 -179.92024044 183.13253577 -183.35571289 183.12939453 C-185.81445848 183.13074908 -188.27320386 183.13252932 -190.73194885 183.13470459 C-196.72287995 183.13879758 -202.71379371 183.13818954 -208.70472414 183.13529195 C-213.57254884 183.13303488 -218.44037004 183.13272672 -223.30819511 183.13381577 C-224.0006273 183.133969 -224.69305948 183.13412223 -225.40647445 183.13428011 C-226.81306112 183.13459983 -228.21964779 183.13492404 -229.62623446 183.1352527 C-242.8191138 183.138105 -256.01198618 183.13482426 -269.20486438 183.12945233 C-280.53054132 183.12498353 -291.85620801 183.12576134 -303.18188477 183.13037109 C-316.32865058 183.13571955 -329.47541031 183.13783138 -342.62217706 183.13475883 C-344.02332493 183.13444027 -345.42447279 183.1341259 -346.82562065 183.13381577 C-347.51504613 183.13366149 -348.20447161 183.13350721 -348.91478877 183.13334826 C-353.77855739 183.132484 -358.64232215 183.13394403 -363.50609016 183.13629532 C-370.0485624 183.13938858 -376.59101822 183.13719436 -383.13348961 183.13140106 C-385.53978061 183.13007468 -387.94607323 183.13046553 -390.35236359 183.13266373 C-393.62666013 183.13537992 -396.90089368 183.13198827 -400.17518616 183.12698364 C-401.61709126 183.13032973 -401.61709126 183.13032973 -403.08812577 183.13374341 C-403.96248101 183.13113566 -404.83683625 183.12852791 -405.73768711 183.12584114 C-406.49382032 183.12567879 -407.24995353 183.12551644 -408.02899987 183.12534916 C-410 183 -410 183 -413 182 C-412.505 180.02 -412.505 180.02 -412 178 C-412 178.99 -412 179.98 -412 181 C-328.51 180.67 -245.02 180.34 -159 180 C-158.7112105 129.69619336 -158.7112105 129.69619336 -158.43188477 79.39233398 C-158.3729248 69.59387207 -158.3729248 69.59387207 -158.34410095 64.98573303 C-158.3245499 61.81341854 -158.30736874 58.64110141 -158.29173279 55.46876526 C-158.20099643 37.29202299 -158.0044897 19.15485765 -157 1 C-138.0062901 0.8691996 -119.01257755 0.73879226 -100.01886177 0.60884857 C-91.19909667 0.5484999 -82.37933247 0.48802423 -73.55957031 0.42724609 C-65.86929174 0.37425171 -58.17901155 0.32149915 -50.48872936 0.26903296 C-46.41951875 0.24126283 -42.35030903 0.21337434 -38.28110123 0.18519592 C-34.44476581 0.15863393 -30.6084283 0.13239725 -26.772089 0.10640144 C-25.37013862 0.09684577 -23.96818901 0.08717504 -22.56624031 0.07737541 C-15.04403418 0.02486519 -7.52240197 -0.01450918 0 0 Z " fill="#8D8D8D" transform="translate(445,720)"/>
<path d="M0 0 C0.7616261 -0.00230769 1.52325221 -0.00461538 2.30795789 -0.006993 C4.86276811 -0.01229124 7.41732678 -0.00331037 9.9721241 0.00558662 C11.82108879 0.00471452 13.67005325 0.00296346 15.51901639 0.00040829 C20.60199537 -0.00406831 25.68489024 0.00394279 30.76785851 0.01396441 C36.24837683 0.02259207 41.72889032 0.01967924 47.20941353 0.01815987 C56.70552255 0.01711058 66.20160411 0.02339174 75.69770622 0.03463554 C89.42751498 0.05088168 103.15731044 0.05609764 116.88712777 0.05861153 C139.16222188 0.06299002 161.43730317 0.07628615 183.71238899 0.09521675 C205.35203666 0.1135861 226.99168041 0.12775309 248.6313343 0.13623238 C249.63191506 0.13662695 249.63191506 0.13662695 250.65270956 0.1370295 C258.01625532 0.13992821 265.37980111 0.1427119 272.74334693 0.14544845 C328.25582419 0.16618575 383.76828558 0.20141549 439.28074837 0.24609566 C439.28074837 0.57609566 439.28074837 0.90609566 439.28074837 1.24609566 C438.35753349 1.24745219 437.43431862 1.24880872 436.48312753 1.25020635 C381.74496718 1.33081056 327.00683225 1.42185364 272.26871165 1.52614727 C265.69370385 1.53866588 259.11869589 1.55109869 252.54368782 1.56347847 C251.23474259 1.56594446 249.92579736 1.56841046 248.57718713 1.57095118 C227.39328708 1.61065617 206.20938171 1.64341352 185.0254662 1.67359547 C163.2828092 1.70472845 141.54017475 1.74334576 119.79754311 1.78888571 C106.38522924 1.81674268 92.97293183 1.83878784 79.56059683 1.85335816 C70.3586228 1.8639143 61.15668066 1.88175163 51.95473068 1.90526269 C46.64869025 1.91860628 41.34269446 1.92878933 36.03663635 1.9303093 C31.17104278 1.93177423 26.30555655 1.94246013 21.43999601 1.96023007 C19.6873915 1.96504786 17.93477398 1.9665909 16.18216424 1.96437447 C5.69885793 1.95330099 -4.35928722 2.56250836 -14.71925163 4.24609566 C-13.71925163 2.24609566 -13.71925163 2.24609566 -11.13920486 1.13647664 C-7.36035319 0.15265685 -3.87215222 -0.02900622 0 0 Z " fill="#3D3D3D" transform="translate(101.71925163269043,28.753904342651367)"/>
<path d="M0 0 C0.66 0.33 1.32 0.66 2 1 C-0.07199395 4.10799092 -1.11313939 4.82235208 -4.3125 6.5 C-6.9001391 7.87481307 -9.39369088 9.24819642 -11.875 10.8125 C-14 12 -14 12 -17 12 C-17 12.66 -17 13.32 -17 14 C-18.24663331 14.50833591 -19.49749387 15.00631145 -20.75 15.5 C-21.44609375 15.7784375 -22.1421875 16.056875 -22.859375 16.34375 C-25 17 -25 17 -29 17 C-29 17.66 -29 18.32 -29 19 C-36.17859349 21.04061541 -42.52605426 22.37369729 -50 22 C-47.55445865 19.55445865 -46.7940651 19.76157385 -43.4375 19.625 C-38.73829345 19.2525845 -35.27572374 18.02359037 -31.0703125 15.96484375 C-29 15 -29 15 -25.6875 14.125 C-16.16793966 11.22072735 -7.91544613 5.91907255 0 0 Z " fill="#5D5D5D" transform="translate(243,481)"/>
<path d="M0 0 C1 3 1 3 -0.4375 6.1875 C-1.2109375 7.5796875 -1.2109375 7.5796875 -2 9 C-2.66 9 -3.32 9 -4 9 C-4.309375 9.78375 -4.61875 10.5675 -4.9375 11.375 C-6 14 -6 14 -7 16 C-7.66 16 -8.32 16 -9 16 C-9.268125 16.804375 -9.53625 17.60875 -9.8125 18.4375 C-10.204375 19.283125 -10.59625 20.12875 -11 21 C-11.99 21.33 -12.98 21.66 -14 22 C-14.14695312 22.60714844 -14.29390625 23.21429688 -14.4453125 23.83984375 C-15.19075926 26.74288642 -16.57894995 27.68276672 -18.875 29.5625 C-21.36338916 31.62391463 -23.75309443 33.67537129 -26 36 C-26.99 35.67 -27.98 35.34 -29 35 C-27.625 33.5 -27.625 33.5 -26 32 C-25.34 32 -24.68 32 -24 32 C-24 31.34 -24 30.68 -24 30 C-23.030625 29.21625 -22.06125 28.4325 -21.0625 27.625 C-16.47904618 23.88340504 -13.30415033 19.2048392 -9.91796875 14.4140625 C-9.28503906 13.61742187 -8.65210938 12.82078125 -8 12 C-7.34 12 -6.68 12 -6 12 C-5.87625 11.4225 -5.7525 10.845 -5.625 10.25 C-4.99351176 7.97664233 -4.11141809 6.0746471 -3 4 C-2.34 4 -1.68 4 -1 4 C-0.67 2.68 -0.34 1.36 0 0 Z " fill="#656565" transform="translate(275,444)"/>
<path d="M0 0 C0.97155029 0.00273926 1.94310059 0.00547852 2.9440918 0.00830078 C9.65078968 0.10310665 16.18689503 0.65048778 22.8125 1.6875 C24.02969727 1.87638794 24.02969727 1.87638794 25.27148438 2.0690918 C27.19643016 2.40461938 29.10201472 2.84812201 31 3.3125 C31.495 4.3025 31.495 4.3025 32 5.3125 C29.52039864 5.17225781 27.04147598 5.0255815 24.5625 4.875 C23.85544922 4.83568359 23.14839844 4.79636719 22.41992188 4.75585938 C17.11328125 4.42578125 17.11328125 4.42578125 16 3.3125 C13.85613343 3.15391158 11.70733162 3.06120702 9.55859375 2.99609375 C8.25341797 2.95419922 6.94824219 2.91230469 5.60351562 2.86914062 C4.2148467 2.82932392 2.82617478 2.78961175 1.4375 2.75 C0.04490817 2.70682011 -1.34767028 2.663206 -2.74023438 2.61914062 C-6.16004801 2.51264124 -9.57993763 2.41063077 -13 2.3125 C-8.72409772 -0.53810152 -5.03410416 -0.02820705 0 0 Z " fill="#292929" transform="translate(466,285.6875)"/>
<path d="M0 0 C0.66 0 1.32 0 2 0 C3.43194595 2.03753976 4.72889327 4.05286967 6 6.1875 C6.35578125 6.76564453 6.7115625 7.34378906 7.078125 7.93945312 C9.99597618 12.75717382 12 16.3254442 12 22 C12.66 22 13.32 22 14 22 C14.95261487 26.76307437 15.08333357 31.1666528 15 36 C14.67 36 14.34 36 14 36 C13.72027344 34.85144531 13.44054688 33.70289063 13.15234375 32.51953125 C10.86760534 23.53483385 8.2812259 15.72314372 3.55078125 7.69921875 C2.1047035 5.18224212 1.00513059 2.71830884 0 0 Z " fill="#636363" transform="translate(1032,58)"/>
<path d="M0 0 C0.66 0.33 1.32 0.66 2 1 C1.01 2.485 1.01 2.485 0 4 C-0.66 4 -1.32 4 -2 4 C-2 4.66 -2 5.32 -2 6 C-3.49609375 7.4375 -3.49609375 7.4375 -5.4375 9 C-8.15188238 11.14525044 -8.15188238 11.14525044 -10 14 C-10.66 14 -11.32 14 -12 14 C-12 14.66 -12 15.32 -12 16 C-13.66666667 17.66666667 -15.33333333 19.33333333 -17 21 C-17.66 22.093125 -18.32 23.18625 -19 24.3125 C-19.99 25.6428125 -19.99 25.6428125 -21 27 C-23.75 27.375 -23.75 27.375 -26 27 C-25.67 25.68 -25.34 24.36 -25 23 C-25 23.66 -25 24.32 -25 25 C-23.05000871 24.80528889 -23.05000871 24.80528889 -21 24 C-20.71511719 23.42636719 -20.43023437 22.85273438 -20.13671875 22.26171875 C-18.70776096 19.4185347 -16.8361558 17.40615985 -14.6875 15.0625 C-13.47900391 13.74378906 -13.47900391 13.74378906 -12.24609375 12.3984375 C-9.88282943 9.87488221 -7.47894686 7.41008723 -5 5 C-4.071875 4.071875 -3.14375 3.14375 -2.1875 2.1875 C-1.465625 1.465625 -0.74375 0.74375 0 0 Z " fill="#676767" transform="translate(58,259)"/>
<path d="M0 0 C6.15234375 -0.09765625 6.15234375 -0.09765625 8 0 C8.33 0.33 8.66 0.66 9 1 C10.34747084 1.23075082 11.70377565 1.41153063 13.0625 1.5625 C14.361875 1.706875 15.66125 1.85125 17 2 C17 2.66 17 3.32 17 4 C18.98567708 4.1953125 20.97135417 4.390625 22.95703125 4.5859375 C25 5 25 5 28 7 C27.67 7.66 27.34 8.32 27 9 C26.3915625 8.75765625 25.783125 8.5153125 25.15625 8.265625 C16.92650272 5.11895692 8.55841177 3.01879726 0 1 C0 0.67 0 0.34 0 0 Z " fill="#5C5C5C" transform="translate(978,29)"/>
<path d="M0 0 C0.66 0 1.32 0 2 0 C3.25664978 2.90600261 4 4.79604584 4 8 C5.65 8 7.3 8 9 8 C9 7.34 9 6.68 9 6 C9.66 6 10.32 6 11 6 C10.125 9.875 10.125 9.875 9 11 C7.00041636 11.04080783 4.99954746 11.04254356 3 11 C2.49632243 9.54293274 1.99717444 8.08429904 1.5 6.625 C1.2215625 5.81289063 0.943125 5.00078125 0.65625 4.1640625 C0 2 0 2 0 0 Z " fill="#898989" transform="translate(345,334)"/>
<path d="M0 0 C0.33 0 0.66 0 1 0 C1.02701408 2.10409639 1.04640223 4.20829178 1.0625 6.3125 C1.07410156 7.48425781 1.08570313 8.65601563 1.09765625 9.86328125 C1 13 1 13 0 16 C-6.27 16 -12.54 16 -19 16 C-19 15.67 -19 15.34 -19 15 C-17.86820312 14.96261719 -16.73640625 14.92523437 -15.5703125 14.88671875 C-14.08850795 14.82106918 -12.60673861 14.75462149 -11.125 14.6875 C-10.00544922 14.65366211 -10.00544922 14.65366211 -8.86328125 14.61914062 C-6.900396 14.52188055 -4.94671678 14.26957706 -3 14 C-0.81005752 10.71508627 -0.64722661 9.16904361 -0.375 5.3125 C-0.30023438 4.31863281 -0.22546875 3.32476563 -0.1484375 2.30078125 C-0.09945313 1.54152344 -0.05046875 0.78226563 0 0 Z " fill="#969696" transform="translate(289,886)"/>
<path d="M0 0 C0.66 0.33 1.32 0.66 2 1 C0.57390841 4.36202939 -1.14348515 6.23675579 -3.9375 8.5625 C-6.39732014 10.6269098 -8.76368922 12.69358543 -11 15 C-11.99 14.67 -12.98 14.34 -14 14 C-12.625 12.5 -12.625 12.5 -11 11 C-10.34 11 -9.68 11 -9 11 C-9 10.34 -9 9.68 -9 9 C-7.5390625 7.59765625 -7.5390625 7.59765625 -5.625 6.0625 C-3.16098476 4.08013383 -1.79533563 2.69300345 0 0 Z " fill="#5E5E5E" transform="translate(260,465)"/>
<path d="M0 0 C1.63812169 0.23889275 3.27620031 0.47808454 4.9140625 0.71875 C6.34308754 0.91142753 7.7759878 1.07677618 9.2109375 1.21875 C11.14824535 1.41457895 13.07584735 1.70142459 15 2 C15.33 2.66 15.66 3.32 16 4 C11.05 3.67 6.1 3.34 1 3 C0.67 2.01 0.34 1.02 0 0 Z " fill="#5E5E5E" transform="translate(482,287)"/>
<path d="M0 0 C0.33 0 0.66 0 1 0 C0.88487847 1.72985242 0.75744323 3.45888751 0.625 5.1875 C0.55539062 6.15042969 0.48578125 7.11335938 0.4140625 8.10546875 C-0.00215853 11.01508938 -0.79874096 13.32890774 -2 16 C-2.66 16 -3.32 16 -4 16 C-3.19266408 10.48320454 -1.76131546 5.28394639 0 0 Z " fill="#4D4D4D" transform="translate(285,415)"/>
<path d="M0 0 C0.66 0 1.32 0 2 0 C1.67 0.99 1.34 1.98 1 3 C-3.67201205 4.20568053 -8.21496292 4.09382426 -13 4 C-10.50600835 1.50600835 -9.38557427 1.67067912 -5.9375 1.4375 C-2.66160436 1.46018047 -2.66160436 1.46018047 0 0 Z " fill="#666666" transform="translate(206,499)"/>
<path d="M0 0 C0 0.99 0 1.98 0 3 C-1.4096347 3.70180531 -2.82807641 4.38593958 -4.25 5.0625 C-5.03890625 5.44535156 -5.8278125 5.82820312 -6.640625 6.22265625 C-9.25993522 7.08564091 -10.44855176 6.93045933 -13 6 C-12.14535156 5.65066406 -11.29070312 5.30132813 -10.41015625 4.94140625 C-9.30542969 4.48636719 -8.20070313 4.03132812 -7.0625 3.5625 C-5.96035156 3.11003906 -4.85820312 2.65757812 -3.72265625 2.19140625 C-1.13431084 1.25575392 -1.13431084 1.25575392 0 0 Z " fill="#4D4D4D" transform="translate(480,708)"/>
<path d="M0 0 C5.19822672 1.36144033 8.09543873 3.46730171 12 7 C11.67 7.66 11.34 8.32 11 9 C9.16384919 7.69144447 7.33114211 6.37805538 5.5 5.0625 C4.4790625 4.33160156 3.458125 3.60070313 2.40625 2.84765625 C1.6121875 2.23792969 0.818125 1.62820312 0 1 C0 0.67 0 0.34 0 0 Z " fill="#686868" transform="translate(1010,39)"/>
<path d="M0 0 C4.30764815 1.56641751 8.06171464 3.68336156 12 6 C9 7 9 7 5.8125 5.5625 C4.884375 5.046875 3.95625 4.53125 3 4 C3 3.34 3 2.68 3 2 C2.01 2 1.02 2 0 2 C0 1.34 0 0.68 0 0 Z " fill="#606060" transform="translate(258,234)"/>
<path d="M0 0 C0.66 0 1.32 0 2 0 C3.32421875 1.609375 3.32421875 1.609375 4.6875 3.75 C5.14511719 4.44609375 5.60273437 5.1421875 6.07421875 5.859375 C7.16906025 8.39090725 6.9435441 9.46100862 6 12 C4.99466333 10.37829621 3.99588093 8.75252763 3 7.125 C2.443125 6.22007813 1.88625 5.31515625 1.3125 4.3828125 C0 2 0 2 0 0 Z " fill="#575757" transform="translate(1032,58)"/>
<path d="M0 0 C-2.62451617 2.62451617 -4.4877828 2.5832868 -8.125 3.125 C-9.22070312 3.29257812 -10.31640625 3.46015625 -11.4453125 3.6328125 C-12.70988281 3.81457031 -12.70988281 3.81457031 -14 4 C-13 2 -13 2 -10.375 0.875 C-6.78189212 -0.05654649 -3.69584376 -0.14783375 0 0 Z " fill="#4F4F4F" transform="translate(101,29)"/>
<path d="M0 0 C1.15957207 3.47871621 0.77456651 4.34219645 -0.4375 7.6875 C-0.86869141 8.89986328 -0.86869141 8.89986328 -1.30859375 10.13671875 C-1.53675781 10.75160156 -1.76492188 11.36648438 -2 12 C-2.66 12 -3.32 12 -4 12 C-3.33501617 7.61110675 -1.81242323 4.0188515 0 0 Z " fill="#666666" transform="translate(537,639)"/>
<path d="M0 0 C0.33 0.99 0.66 1.98 1 3 C0.34 3 -0.32 3 -1 3 C-1 3.66 -1 4.32 -1 5 C-1.66 5 -2.32 5 -3 5 C-3.33 5.99 -3.66 6.98 -4 8 C-6.0625 8.6875 -6.0625 8.6875 -8 9 C-7.04270084 7.87411986 -6.08412105 6.7493285 -5.125 5.625 C-4.59132813 4.99851562 -4.05765625 4.37203125 -3.5078125 3.7265625 C-2.38567993 2.44163349 -1.20628025 1.20628025 0 0 Z " fill="#5A5A5A" transform="translate(1030,802)"/>
<path d="M0 0 C-3.95523655 2.75668002 -7.22423661 3.5317879 -12 4 C-12 3.34 -12 2.68 -12 2 C-10.56656 1.46809459 -9.12804633 0.94984742 -7.6875 0.4375 C-6.48673828 0.00244141 -6.48673828 0.00244141 -5.26171875 -0.44140625 C-3 -1 -3 -1 0 0 Z " fill="#5D5D5D" transform="translate(431,292)"/>
<path d="M0 0 C2.94956528 1.36944102 5.52468811 2.87830409 8 5 C8 5.66 8 6.32 8 7 C6.68 6.67 5.36 6.34 4 6 C4 5.34 4 4.68 4 4 C3.01 3.67 2.02 3.34 1 3 C0.67 2.01 0.34 1.02 0 0 Z " fill="#747474" transform="translate(102,474)"/>
<path d="M0 0 C0 0.66 0 1.32 0 2 C-1.28788008 2.53012738 -2.58046678 3.0488329 -3.875 3.5625 C-4.95394531 3.99755859 -4.95394531 3.99755859 -6.0546875 4.44140625 C-8 5 -8 5 -10 4 C-3.375 0 -3.375 0 0 0 Z " fill="#606060" transform="translate(416,296)"/>
</svg>
